999
dxfrw 0.6.3
  0
SECTION
  2
HEADER
  9
$ACADVER
  1
AC1021
  9
$DWGCODEPAGE
  3
ANSI_1252
  9
$INSBASE
 10
0
 20
0
 30
0
  9
$EXTMIN
 10
453.1256368989297
 20
-302.125
 30
0
  9
$EXTMAX
 10
572.125
 20
-184.0136208958742
 30
0
  9
$LIMMIN
 10
0
 20
0
  9
$LIMMAX
 10
420
 20
297
  9
$ORTHOMODE
 70
    0
  9
$REGENMODE
 70
    1
  9
$FILLMODE
 70
    1
  9
$QTEXTMODE
 70
    0
  9
$MIRRTEXT
 70
    0
  9
$LTSCALE
 40
1
  9
$ATTMODE
 70
    0
  9
$TEXTSIZE
 40
2.5
  9
$TRACEWID
 40
15.68
  9
$TEXTSTYLE
  7
STANDARD
  9
$CLAYER
  8
0
  9
$CELTYPE
  6
BYLAYER
  9
$CECOLOR
 62
  256
  9
$CELTSCALE
 40
1
  9
$DISPSILH
 70
    0
  9
$DIMSCALE
 40
0.1
  9
$DIMASZ
 40
1
  9
$DIMEXO
 40
0.625
  9
$DIMDLI
 40
3.75
  9
$DIMRND
 40
0
  9
$DIMDLE
 40
0
  9
$DIMEXE
 40
1.25
  9
$DIMTP
 40
0
  9
$DIMTM
 40
0
  9
$DIMTXT
 40
10
  9
$DIMCEN
 40
2.5
  9
$DIMTSZ
 40
0
  9
$DIMTOL
 70
    0
  9
$DIMLIM
 70
    0
  9
$DIMTIH
 70
    0
  9
$DIMTOH
 70
    0
  9
$DIMSE1
 70
    0
  9
$DIMSE2
 70
    0
  9
$DIMTAD
 70
    1
  9
$DIMZIN
 70
    1
  9
$DIMBLK
  1

  9
$DIMASO
 70
    1
  9
$DIMSHO
 70
    1
  9
$DIMPOST
  1

  9
$DIMAPOST
  1

  9
$DIMALT
 70
    0
  9
$DIMALTD
 70
    3
  9
$DIMALTF
 40
0.03937
  9
$DIMLFAC
 40
1
  9
$DIMTOFL
 70
    1
  9
$DIMTVP
 40
0
  9
$DIMTIX
 70
    0
  9
$DIMSOXD
 70
    0
  9
$DIMSAH
 70
    0
  9
$DIMBLK1
  1

  9
$DIMBLK2
  1

  9
$DIMSTYLE
  2
STANDARD
  9
$DIMCLRD
 70
    4
  9
$DIMCLRE
 70
    4
  9
$DIMCLRT
 70
    4
  9
$DIMTFAC
 40
1
  9
$DIMGAP
 40
0.625
  9
$DIMJUST
 70
    0
  9
$DIMSD1
 70
    0
  9
$DIMSD2
 70
    0
  9
$DIMTOLJ
 70
    0
  9
$DIMTZIN
 70
    8
  9
$DIMALTZ
 70
    0
  9
$DIMALTTZ
 70
    0
  9
$DIMUPT
 70
    0
  9
$DIMDEC
 70
    1
  9
$DIMTDEC
 70
    2
  9
$DIMALTU
 70
    2
  9
$DIMALTTD
 70
    3
  9
$DIMTXSTY
  7
standard
  9
$DIMAUNIT
 70
    0
  9
$DIMADEC
 70
    2
  9
$DIMALTRND
 40
0
  9
$DIMAZIN
 70
    0
  9
$DIMDSEP
 70
    0
  9
$DIMATFIT
 70
    3
  9
$DIMFRAC
 70
    0
  9
$DIMLDRBLK
  1
STANDARD
  9
$DIMLUNIT
 70
    2
  9
$DIMLWD
 70
   -2
  9
$DIMLWE
 70
   -2
  9
$DIMTMOVE
 70
    0
  9
$DIMFXL
 40
0.5
  9
$DIMFXLON
 70
    1
  9
$DIMJOGANG
 40
0.7854
  9
$DIMTFILL
 70
    0
  9
$DIMTFILLCLR
 70
    0
  9
$DIMARCSYM
 70
    0
  9
$DIMLTYPE
  6

  9
$DIMLTEX1
  6

  9
$DIMLTEX2
  6

  9
$LUNITS
 70
    2
  9
$LUPREC
 70
    4
  9
$SKETCHINC
 40
1
  9
$FILLETRAD
 40
0
  9
$AUNITS
 70
    0
  9
$AUPREC
 70
    2
  9
$MENU
  1
.
  9
$ELEVATION
 40
0
  9
$PELEVATION
 40
0
  9
$THICKNESS
 40
0
  9
$LIMCHECK
 70
    0
  9
$CHAMFERA
 40
0
  9
$CHAMFERB
 40
0
  9
$CHAMFERC
 40
0
  9
$CHAMFERD
 40
0
  9
$SKPOLY
 70
    0
  9
$USRTIMER
 70
    1
  9
$ANGBASE
 50
0
  9
$ANGDIR
 70
    0
  9
$PDMODE
 70
   34
  9
$PDSIZE
 40
0
  9
$PLINEWID
 40
0
  9
$SPLFRAME
 70
    0
  9
$SPLINETYPE
 70
    2
  9
$SPLINESEGS
 70
    8
  9
$HANDSEED
  5
20000
  9
$SURFTAB1
 70
    6
  9
$SURFTAB2
 70
    6
  9
$SURFTYPE
 70
    6
  9
$SURFU
 70
    6
  9
$SURFV
 70
    6
  9
$UCSBASE
  2

  9
$UCSNAME
  2

  9
$UCSORG
 10
0
 20
0
 30
0
  9
$UCSXDIR
 10
1
 20
0
 30
0
  9
$UCSYDIR
 10
0
 20
1
 30
0
  9
$UCSORTHOREF
  2

  9
$UCSORTHOVIEW
 70
    0
  9
$UCSORGTOP
 10
0
 20
0
 30
0
  9
$UCSORGBOTTOM
 10
0
 20
0
 30
0
  9
$UCSORGLEFT
 10
0
 20
0
 30
0
  9
$UCSORGRIGHT
 10
0
 20
0
 30
0
  9
$UCSORGFRONT
 10
0
 20
0
 30
0
  9
$UCSORGBACK
 10
0
 20
0
 30
0
  9
$PUCSBASE
  2

  9
$PUCSNAME
  2

  9
$PUCSORG
 10
0
 20
0
 30
0
  9
$PUCSXDIR
 10
1
 20
0
 30
0
  9
$PUCSYDIR
 10
0
 20
1
 30
0
  9
$PUCSORTHOREF
  2

  9
$PUCSORTHOVIEW
 70
    0
  9
$PUCSORGTOP
 10
0
 20
0
 30
0
  9
$PUCSORGBOTTOM
 10
0
 20
0
 30
0
  9
$PUCSORGLEFT
 10
0
 20
0
 30
0
  9
$PUCSORGRIGHT
 10
0
 20
0
 30
0
  9
$PUCSORGFRONT
 10
0
 20
0
 30
0
  9
$PUCSORGBACK
 10
0
 20
0
 30
0
  9
$USERI1
 70
    0
  9
$USERI2
 70
    0
  9
$USERI3
 70
    0
  9
$USERI4
 70
    0
  9
$USERI5
 70
    0
  9
$USERR1
 40
0
  9
$USERR2
 40
0
  9
$USERR3
 40
0
  9
$USERR4
 40
0
  9
$USERR5
 40
0
  9
$WORLDVIEW
 70
    1
  9
$SHADEDGE
 70
    3
  9
$SHADEDIF
 70
   70
  9
$TILEMODE
 70
    1
  9
$MAXACTVP
 70
   64
  9
$PINSBASE
 10
12.5
 20
190.5454545454546
 30
0
  9
$PLIMCHECK
 70
    0
  9
$PEXTMIN
 10
0
 20
0
 30
0
  9
$PEXTMAX
 10
0
 20
0
 30
0
  9
$GRIDMODE
 70
    1
  9
$SNAPSTYLE
 70
    0
  9
$GRIDUNIT
 10
0
 20
0
  9
$PLIMMIN
 10
0
 20
0
  9
$PLIMMAX
 10
210
 20
297
  9
$UNITMODE
 70
    0
  9
$VISRETAIN
 70
    1
  9
$PLINEGEN
 70
    0
  9
$PSLTSCALE
 70
    1
  9
$TREEDEPTH
 70
 3020
  9
$CMLSTYLE
  2
Standard
  9
$CMLJUST
 70
    0
  9
$CMLSCALE
 40
20
  9
$PROXYGRAPHICS
 70
    1
  9
$MEASUREMENT
 70
    1
  9
$CELWEIGHT
370
   -1
  9
$ENDCAPS
280
    0
  9
$JOINSTYLE
280
    0
  9
$LWDISPLAY
290
    0
  9
$INSUNITS
 70
    4
  9
$HYPERLINKBASE
  1

  9
$STYLESHEET
  1

  9
$XEDIT
290
    1
  9
$CEPSNTYPE
380
    0
  9
$PSTYLEMODE
290
    1
  9
$EXTNAMES
290
    1
  9
$PSVPSCALE
 40
0.1681817035124749
  9
$OLESTARTUP
290
    0
  9
$SORTENTS
280
  127
  9
$INDEXCTL
280
    0
  9
$HIDETEXT
280
    1
  9
$XCLIPFRAME
290
    0
  9
$HALOGAP
280
    0
  9
$OBSCOLOR
 70
  257
  9
$OBSLTYPE
280
    0
  9
$INTERSECTIONDISPLAY
280
    0
  9
$INTERSECTIONCOLOR
 70
  257
  9
$DIMASSOC
280
    1
  9
$PROJECTNAME
  1

  9
$CAMERADISPLAY
290
    0
  9
$LENSLENGTH
 40
50
  9
$CAMERAHEIGHT
 40
0
  9
$STEPSPERSEC
 40
2
  9
$STEPSIZE
 40
50
  9
$3DDWFPREC
 40
2
  9
$PSOLWIDTH
 40
5
  9
$PSOLHEIGHT
 40
80
  9
$LOFTANG1
 40
1.570796326794897
  9
$LOFTANG2
 40
1.570796326794897
  9
$LOFTMAG1
 40
0
  9
$LOFTMAG2
 40
0
  9
$LOFTPARAM
 70
    7
  9
$LOFTNORMALS
280
    1
  9
$LATITUDE
 40
1
  9
$LONGITUDE
 40
1
  9
$NORTHDIRECTION
 40
0
  9
$TIMEZONE
 70
-8000
  9
$LIGHTGLYPHDISPLAY
280
    1
  9
$TILEMODELIGHTSYNCH
280
    1
  9
$SOLIDHIST
280
    1
  9
$SHOWHIST
280
    1
  9
$DWFFRAME
280
    2
  9
$DGNFRAME
280
    0
  9
$REALWORLDSCALE
290
    1
  9
$INTERFERECOLOR
 62
    1
  9
$CSHADOW
280
    0
  9
$SHADOWPLANELOCATION
 40
0
  0
ENDSEC
  0
SECTION
  2
CLASSES
  0
ENDSEC
  0
SECTION
  2
TABLES
  0
TABLE
  2
VPORT
  5
8
330
0
100
AcDbSymbolTable
 70
    1
  0
VPORT
  5
31
330
2
100
AcDbSymbolTableRecord
100
AcDbViewportTableRecord
  2
*ACTIVE
 70
    0
 10
0
 20
0
 11
1
 21
1
 12
307.1332228797557
 22
-91.27449555152579
 13
0
 23
0
 14
10
 24
10
 15
10
 25
10
 16
0
 26
0
 36
1
 17
0
 27
0
 37
0
 40
121.0205263727003
 41
1.680288461538461
 42
50
 43
0
 44
0
 50
0
 51
0
 71
    0
 72
  100
 73
    1
 74
    3
 75
    0
 76
    1
 77
    0
 78
    0
281
    0
 65
    1
110
0
120
0
130
0
111
1
121
0
131
0
112
0
122
1
132
0
 79
    0
146
0
348
10020
 60
    7
 61
    5
292
1
282
    1
141
0
142
0
 63
  250
421
3358443
  0
ENDTAB
  0
TABLE
  2
LTYPE
  5
5
330
0
100
AcDbSymbolTable
 70
    4
  0
LTYPE
  5
14
330
5
100
AcDbSymbolTableRecord
100
AcDbLinetypeTableRecord
  2
ByBlock
 70
    0
  3

 72
   65
 73
    0
 40
0
  0
LTYPE
  5
15
330
5
100
AcDbSymbolTableRecord
100
AcDbLinetypeTableRecord
  2
ByLayer
 70
    0
  3

 72
   65
 73
    0
 40
0
  0
LTYPE
  5
16
330
5
100
AcDbSymbolTableRecord
100
AcDbLinetypeTableRecord
  2
Continuous
 70
    0
  3
Solid line
 72
   65
 73
    0
 40
0
  0
LTYPE
  5
32
330
5
100
AcDbSymbolTableRecord
100
AcDbLinetypeTableRecord
  2
DOT
 70
    0
  3
Dot . . . . . . . . . . . . . . . . . . . . . .
 72
   65
 73
    2
 40
6.35
 49
0
 74
    0
 49
-6.35
 74
    0
  0
LTYPE
  5
33
330
5
100
AcDbSymbolTableRecord
100
AcDbLinetypeTableRecord
  2
DOTTINY
 70
    0
  3
Dot (.15x) .....................................
 72
   65
 73
    2
 40
0.9525
 49
0
 74
    0
 49
-0.9525
 74
    0
  0
LTYPE
  5
34
330
5
100
AcDbSymbolTableRecord
100
AcDbLinetypeTableRecord
  2
DOT2
 70
    0
  3
Dot (.5x) .....................................
 72
   65
 73
    2
 40
3.175
 49
0
 74
    0
 49
-3.175
 74
    0
  0
LTYPE
  5
35
330
5
100
AcDbSymbolTableRecord
100
AcDbLinetypeTableRecord
  2
DOTX2
 70
    0
  3
Dot (2x) .  .  .  .  .  .  .  .  .  .  .  .  .
 72
   65
 73
    2
 40
12.7
 49
0
 74
    0
 49
-12.7
 74
    0
  0
LTYPE
  5
36
330
5
100
AcDbSymbolTableRecord
100
AcDbLinetypeTableRecord
  2
DASHED
 70
    0
  3
Dashed _ _ _ _ _ _ _ _ _ _ _ _ _ _ _ _ _
 72
   65
 73
    2
 40
19.05
 49
12.7
 74
    0
 49
-6.35
 74
    0
  0
LTYPE
  5
37
330
5
100
AcDbSymbolTableRecord
100
AcDbLinetypeTableRecord
  2
DASHEDTINY
 70
    0
  3
Dashed (.15x) _ _ _ _ _ _ _ _ _ _ _ _ _ _ _ _ _
 72
   65
 73
    2
 40
2.8575
 49
1.905
 74
    0
 49
-0.9525
 74
    0
  0
LTYPE
  5
38
330
5
100
AcDbSymbolTableRecord
100
AcDbLinetypeTableRecord
  2
DASHED2
 70
    0
  3
Dashed (.5x) _ _ _ _ _ _ _ _ _ _ _ _ _ _ _ _ _
 72
   65
 73
    2
 40
9.524999999999999
 49
6.35
 74
    0
 49
-3.175
 74
    0
  0
LTYPE
  5
39
330
5
100
AcDbSymbolTableRecord
100
AcDbLinetypeTableRecord
  2
DASHEDX2
 70
    0
  3
Dashed (2x) ____  ____  ____  ____  ____  ___
 72
   65
 73
    2
 40
38.09999999999999
 49
25.4
 74
    0
 49
-12.7
 74
    0
  0
LTYPE
  5
3A
330
5
100
AcDbSymbolTableRecord
100
AcDbLinetypeTableRecord
  2
DASHDOT
 70
    0
  3
Dash dot __ . __ . __ . __ . __ . __ . __ . __
 72
   65
 73
    4
 40
25.4
 49
12.7
 74
    0
 49
-6.35
 74
    0
 49
0
 74
    0
 49
-6.35
 74
    0
  0
LTYPE
  5
3B
330
5
100
AcDbSymbolTableRecord
100
AcDbLinetypeTableRecord
  2
DASHDOTTINY
 70
    0
  3
Dash dot (.15x) _._._._._._._._._._._._._._._.
 72
   65
 73
    4
 40
3.81
 49
1.905
 74
    0
 49
-0.9525
 74
    0
 49
0
 74
    0
 49
-0.9525
 74
    0
  0
LTYPE
  5
3C
330
5
100
AcDbSymbolTableRecord
100
AcDbLinetypeTableRecord
  2
DASHDOT2
 70
    0
  3
Dash dot (.5x) _._._._._._._._._._._._._._._.
 72
   65
 73
    4
 40
12.7
 49
6.35
 74
    0
 49
-3.175
 74
    0
 49
0
 74
    0
 49
-3.175
 74
    0
  0
LTYPE
  5
3D
330
5
100
AcDbSymbolTableRecord
100
AcDbLinetypeTableRecord
  2
DASHDOTX2
 70
    0
  3
Dash dot (2x) ____  .  ____  .  ____  .  ___
 72
   65
 73
    4
 40
50.8
 49
25.4
 74
    0
 49
-12.7
 74
    0
 49
0
 74
    0
 49
-12.7
 74
    0
  0
LTYPE
  5
3E
330
5
100
AcDbSymbolTableRecord
100
AcDbLinetypeTableRecord
  2
DIVIDE
 70
    0
  3
Divide ____ . . ____ . . ____ . . ____ . . ____
 72
   65
 73
    6
 40
31.75
 49
12.7
 74
    0
 49
-6.35
 74
    0
 49
0
 74
    0
 49
-6.35
 74
    0
 49
0
 74
    0
 49
-6.35
 74
    0
  0
LTYPE
  5
3F
330
5
100
AcDbSymbolTableRecord
100
AcDbLinetypeTableRecord
  2
DIVIDETINY
 70
    0
  3
Divide (.15x) __..__..__..__..__..__..__..__.._
 72
   65
 73
    6
 40
4.7625
 49
1.905
 74
    0
 49
-0.9525
 74
    0
 49
0
 74
    0
 49
-0.9525
 74
    0
 49
0
 74
    0
 49
-0.9525
 74
    0
  0
LTYPE
  5
40
330
5
100
AcDbSymbolTableRecord
100
AcDbLinetypeTableRecord
  2
DIVIDE2
 70
    0
  3
Divide (.5x) __..__..__..__..__..__..__..__.._
 72
   65
 73
    6
 40
15.875
 49
6.35
 74
    0
 49
-3.175
 74
    0
 49
0
 74
    0
 49
-3.175
 74
    0
 49
0
 74
    0
 49
-3.175
 74
    0
  0
LTYPE
  5
41
330
5
100
AcDbSymbolTableRecord
100
AcDbLinetypeTableRecord
  2
DIVIDEX2
 70
    0
  3
Divide (2x) ________  .  .  ________  .  .  _
 72
   65
 73
    6
 40
63.5
 49
25.4
 74
    0
 49
-12.7
 74
    0
 49
0
 74
    0
 49
-12.7
 74
    0
 49
0
 74
    0
 49
-12.7
 74
    0
  0
LTYPE
  5
42
330
5
100
AcDbSymbolTableRecord
100
AcDbLinetypeTableRecord
  2
BORDER
 70
    0
  3
Border __ __ . __ __ . __ __ . __ __ . __ __ .
 72
   65
 73
    6
 40
44.45
 49
12.7
 74
    0
 49
-6.35
 74
    0
 49
12.7
 74
    0
 49
-6.35
 74
    0
 49
0
 74
    0
 49
-6.35
 74
    0
  0
LTYPE
  5
43
330
5
100
AcDbSymbolTableRecord
100
AcDbLinetypeTableRecord
  2
BORDERTINY
 70
    0
  3
Border (.15x) __.__.__.__.__.__.__.__.__.__.__.
 72
   65
 73
    6
 40
6.6675
 49
1.905
 74
    0
 49
-0.9525
 74
    0
 49
1.905
 74
    0
 49
-0.9525
 74
    0
 49
0
 74
    0
 49
-0.9525
 74
    0
  0
LTYPE
  5
44
330
5
100
AcDbSymbolTableRecord
100
AcDbLinetypeTableRecord
  2
BORDER2
 70
    0
  3
Border (.5x) __.__.__.__.__.__.__.__.__.__.__.
 72
   65
 73
    6
 40
22.225
 49
6.35
 74
    0
 49
-3.175
 74
    0
 49
6.35
 74
    0
 49
-3.175
 74
    0
 49
0
 74
    0
 49
-3.175
 74
    0
  0
LTYPE
  5
45
330
5
100
AcDbSymbolTableRecord
100
AcDbLinetypeTableRecord
  2
BORDERX2
 70
    0
  3
Border (2x) ____  ____  .  ____  ____  .  ___
 72
   65
 73
    6
 40
88.89999999999999
 49
25.4
 74
    0
 49
-12.7
 74
    0
 49
25.4
 74
    0
 49
-12.7
 74
    0
 49
0
 74
    0
 49
-12.7
 74
    0
  0
LTYPE
  5
46
330
5
100
AcDbSymbolTableRecord
100
AcDbLinetypeTableRecord
  2
CENTER
 70
    0
  3
Center ____ _ ____ _ ____ _ ____ _ ____ _ ____
 72
   65
 73
    4
 40
50.8
 49
31.75
 74
    0
 49
-6.35
 74
    0
 49
6.35
 74
    0
 49
-6.35
 74
    0
  0
LTYPE
  5
47
330
5
100
AcDbSymbolTableRecord
100
AcDbLinetypeTableRecord
  2
CENTERTINY
 70
    0
  3
Center (.15x) ___ _ ___ _ ___ _ ___ _ ___ _ ___
 72
   65
 73
    4
 40
7.62
 49
4.7625
 74
    0
 49
-0.9525
 74
    0
 49
0.9525
 74
    0
 49
-0.9525
 74
    0
  0
LTYPE
  5
48
330
5
100
AcDbSymbolTableRecord
100
AcDbLinetypeTableRecord
  2
CENTER2
 70
    0
  3
Center (.5x) ___ _ ___ _ ___ _ ___ _ ___ _ ___
 72
   65
 73
    4
 40
28.575
 49
19.05
 74
    0
 49
-3.175
 74
    0
 49
3.175
 74
    0
 49
-3.175
 74
    0
  0
LTYPE
  5
49
330
5
100
AcDbSymbolTableRecord
100
AcDbLinetypeTableRecord
  2
CENTERX2
 70
    0
  3
Center (2x) ________  __  ________  __  _____
 72
   65
 73
    4
 40
101.6
 49
63.5
 74
    0
 49
-12.7
 74
    0
 49
12.7
 74
    0
 49
-12.7
 74
    0
  0
ENDTAB
  0
TABLE
  2
LAYER
  5
2
330
0
100
AcDbSymbolTable
 70
    1
  0
LAYER
  5
10
330
2
100
AcDbSymbolTableRecord
100
AcDbLayerTableRecord
  2
0
 70
    0
 62
    7
  6
CONTINUOUS
370
    0
390
F
  0
ENDTAB
  0
TABLE
  2
STYLE
  5
3
330
0
100
AcDbSymbolTable
 70
    3
  0
STYLE
  5
4A
330
2
100
AcDbSymbolTableRecord
100
AcDbTextStyleTableRecord
  2
Standard
 70
    0
 40
0
 41
1
 50
0
 71
    0
 42
1
  3
txt
  4

  0
ENDTAB
  0
TABLE
  2
VIEW
  5
6
330
0
100
AcDbSymbolTable
 70
    0
  0
ENDTAB
  0
TABLE
  2
UCS
  5
7
330
0
100
AcDbSymbolTable
 70
    0
  0
ENDTAB
  0
TABLE
  2
APPID
  5
9
330
0
100
AcDbSymbolTable
 70
    1
  0
APPID
  5
12
330
9
100
AcDbSymbolTableRecord
100
AcDbRegAppTableRecord
  2
ACAD
 70
    0
  0
APPID
  5
4B
330
9
100
AcDbSymbolTableRecord
100
AcDbRegAppTableRecord
  2
LibreCad
 70
    0
  0
ENDTAB
  0
TABLE
  2
DIMSTYLE
  5
A
330
0
100
AcDbSymbolTable
 70
    1
100
AcDbDimStyleTable
 71
    1
  0
DIMSTYLE
105
4C
330
A
100
AcDbSymbolTableRecord
100
AcDbDimStyleTableRecord
  2
Standard
 70
    0
 40
0.1
 41
1
 42
0.625
 43
0.38
 44
1.25
 45
0
 46
0
 47
0
 48
0
 49
0.5
140
10
141
0.09
142
0
143
25.4
144
1
145
0
146
1
147
0.625
148
0
 71
    0
 72
    0
 73
    0
 74
    1
 75
    0
 76
    0
 77
    0
 78
    1
 79
    0
170
    0
171
    2
172
    0
173
    0
174
    0
175
    0
176
    4
177
    4
178
    4
179
    2
271
    1
272
    4
273
    2
274
    2
275
    0
276
    0
277
    2
278
    0
279
    0
280
    0
281
    0
282
    0
283
    1
284
    0
285
    0
286
    0
288
    0
289
    3
290
    1
340
standard
341

371
   -2
372
   -2
  0
ENDTAB
  0
TABLE
  2
BLOCK_RECORD
  5
1
330
0
100
AcDbSymbolTable
 70
    2
  0
BLOCK_RECORD
  5
1F
330
1
100
AcDbSymbolTableRecord
100
AcDbBlockTableRecord
  2
*Model_Space
 70
    0
280
    1
281
    0
  0
BLOCK_RECORD
  5
1E
330
1
100
AcDbSymbolTableRecord
100
AcDbBlockTableRecord
  2
*Paper_Space
 70
    0
280
    1
281
    0
  0
BLOCK_RECORD
  5
4D
330
1
100
AcDbSymbolTableRecord
100
AcDbBlockTableRecord
  2
*D41
 70
    0
280
    1
281
    0
  0
BLOCK_RECORD
  5
50
330
1
100
AcDbSymbolTableRecord
100
AcDbBlockTableRecord
  2
*D24
 70
    0
280
    1
281
    0
  0
BLOCK_RECORD
  5
53
330
1
100
AcDbSymbolTableRecord
100
AcDbBlockTableRecord
  2
*D14
 70
    0
280
    1
281
    0
  0
BLOCK_RECORD
  5
56
330
1
100
AcDbSymbolTableRecord
100
AcDbBlockTableRecord
  2
*D40
 70
    0
280
    1
281
    0
  0
BLOCK_RECORD
  5
59
330
1
100
AcDbSymbolTableRecord
100
AcDbBlockTableRecord
  2
*D20
 70
    0
280
    1
281
    0
  0
BLOCK_RECORD
  5
5C
330
1
100
AcDbSymbolTableRecord
100
AcDbBlockTableRecord
  2
*D19
 70
    0
280
    1
281
    0
  0
BLOCK_RECORD
  5
5F
330
1
100
AcDbSymbolTableRecord
100
AcDbBlockTableRecord
  2
*D8
 70
    0
280
    1
281
    0
  0
BLOCK_RECORD
  5
62
330
1
100
AcDbSymbolTableRecord
100
AcDbBlockTableRecord
  2
*D37
 70
    0
280
    1
281
    0
  0
BLOCK_RECORD
  5
65
330
1
100
AcDbSymbolTableRecord
100
AcDbBlockTableRecord
  2
*D35
 70
    0
280
    1
281
    0
  0
BLOCK_RECORD
  5
68
330
1
100
AcDbSymbolTableRecord
100
AcDbBlockTableRecord
  2
*D25
 70
    0
280
    1
281
    0
  0
BLOCK_RECORD
  5
6B
330
1
100
AcDbSymbolTableRecord
100
AcDbBlockTableRecord
  2
*D32
 70
    0
280
    1
281
    0
  0
BLOCK_RECORD
  5
6E
330
1
100
AcDbSymbolTableRecord
100
AcDbBlockTableRecord
  2
*D4
 70
    0
280
    1
281
    0
  0
BLOCK_RECORD
  5
71
330
1
100
AcDbSymbolTableRecord
100
AcDbBlockTableRecord
  2
*D13
 70
    0
280
    1
281
    0
  0
BLOCK_RECORD
  5
74
330
1
100
AcDbSymbolTableRecord
100
AcDbBlockTableRecord
  2
*D38
 70
    0
280
    1
281
    0
  0
BLOCK_RECORD
  5
77
330
1
100
AcDbSymbolTableRecord
100
AcDbBlockTableRecord
  2
*D22
 70
    0
280
    1
281
    0
  0
BLOCK_RECORD
  5
7A
330
1
100
AcDbSymbolTableRecord
100
AcDbBlockTableRecord
  2
*D23
 70
    0
280
    1
281
    0
  0
BLOCK_RECORD
  5
7D
330
1
100
AcDbSymbolTableRecord
100
AcDbBlockTableRecord
  2
*D39
 70
    0
280
    1
281
    0
  0
BLOCK_RECORD
  5
80
330
1
100
AcDbSymbolTableRecord
100
AcDbBlockTableRecord
  2
*D16
 70
    0
280
    1
281
    0
  0
BLOCK_RECORD
  5
83
330
1
100
AcDbSymbolTableRecord
100
AcDbBlockTableRecord
  2
*D28
 70
    0
280
    1
281
    0
  0
BLOCK_RECORD
  5
86
330
1
100
AcDbSymbolTableRecord
100
AcDbBlockTableRecord
  2
*D18
 70
    0
280
    1
281
    0
  0
BLOCK_RECORD
  5
89
330
1
100
AcDbSymbolTableRecord
100
AcDbBlockTableRecord
  2
*D11
 70
    0
280
    1
281
    0
  0
BLOCK_RECORD
  5
8C
330
1
100
AcDbSymbolTableRecord
100
AcDbBlockTableRecord
  2
*D34
 70
    0
280
    1
281
    0
  0
BLOCK_RECORD
  5
8F
330
1
100
AcDbSymbolTableRecord
100
AcDbBlockTableRecord
  2
*D26
 70
    0
280
    1
281
    0
  0
BLOCK_RECORD
  5
92
330
1
100
AcDbSymbolTableRecord
100
AcDbBlockTableRecord
  2
*D12
 70
    0
280
    1
281
    0
  0
BLOCK_RECORD
  5
95
330
1
100
AcDbSymbolTableRecord
100
AcDbBlockTableRecord
  2
*D10
 70
    0
280
    1
281
    0
  0
BLOCK_RECORD
  5
98
330
1
100
AcDbSymbolTableRecord
100
AcDbBlockTableRecord
  2
*D21
 70
    0
280
    1
281
    0
  0
BLOCK_RECORD
  5
9B
330
1
100
AcDbSymbolTableRecord
100
AcDbBlockTableRecord
  2
*D1
 70
    0
280
    1
281
    0
  0
BLOCK_RECORD
  5
9E
330
1
100
AcDbSymbolTableRecord
100
AcDbBlockTableRecord
  2
*D31
 70
    0
280
    1
281
    0
  0
BLOCK_RECORD
  5
A1
330
1
100
AcDbSymbolTableRecord
100
AcDbBlockTableRecord
  2
*D30
 70
    0
280
    1
281
    0
  0
BLOCK_RECORD
  5
A4
330
1
100
AcDbSymbolTableRecord
100
AcDbBlockTableRecord
  2
*D33
 70
    0
280
    1
281
    0
  0
BLOCK_RECORD
  5
A7
330
1
100
AcDbSymbolTableRecord
100
AcDbBlockTableRecord
  2
*D15
 70
    0
280
    1
281
    0
  0
BLOCK_RECORD
  5
AA
330
1
100
AcDbSymbolTableRecord
100
AcDbBlockTableRecord
  2
*D9
 70
    0
280
    1
281
    0
  0
BLOCK_RECORD
  5
AD
330
1
100
AcDbSymbolTableRecord
100
AcDbBlockTableRecord
  2
*D2
 70
    0
280
    1
281
    0
  0
BLOCK_RECORD
  5
B0
330
1
100
AcDbSymbolTableRecord
100
AcDbBlockTableRecord
  2
*D17
 70
    0
280
    1
281
    0
  0
BLOCK_RECORD
  5
B3
330
1
100
AcDbSymbolTableRecord
100
AcDbBlockTableRecord
  2
*D6
 70
    0
280
    1
281
    0
  0
BLOCK_RECORD
  5
B6
330
1
100
AcDbSymbolTableRecord
100
AcDbBlockTableRecord
  2
*D29
 70
    0
280
    1
281
    0
  0
BLOCK_RECORD
  5
B9
330
1
100
AcDbSymbolTableRecord
100
AcDbBlockTableRecord
  2
*D7
 70
    0
280
    1
281
    0
  0
BLOCK_RECORD
  5
BC
330
1
100
AcDbSymbolTableRecord
100
AcDbBlockTableRecord
  2
*D27
 70
    0
280
    1
281
    0
  0
BLOCK_RECORD
  5
BF
330
1
100
AcDbSymbolTableRecord
100
AcDbBlockTableRecord
  2
*D3
 70
    0
280
    1
281
    0
  0
BLOCK_RECORD
  5
C2
330
1
100
AcDbSymbolTableRecord
100
AcDbBlockTableRecord
  2
*D36
 70
    0
280
    1
281
    0
  0
BLOCK_RECORD
  5
C5
330
1
100
AcDbSymbolTableRecord
100
AcDbBlockTableRecord
  2
*D5
 70
    0
280
    1
281
    0
  0
ENDTAB
  0
ENDSEC
  0
SECTION
  2
BLOCKS
  0
BLOCK
  5
20
330
1F
100
AcDbEntity
  8
0
100
AcDbBlockBegin
  2
*Model_Space
 70
    0
 10
0
 20
0
 30
0
  3
*Model_Space
  1

  0
ENDBLK
  5
21
330
1F
100
AcDbEntity
  8
0
100
AcDbBlockEnd
  0
BLOCK
  5
1C
330
1B
100
AcDbEntity
  8
0
100
AcDbBlockBegin
  2
*Paper_Space
 70
    0
 10
0
 20
0
 30
0
  3
*Paper_Space
  1

  0
ENDBLK
  5
1D
330
1F
100
AcDbEntity
  8
0
100
AcDbBlockEnd
  0
BLOCK
  5
4E
330
4D
100
AcDbEntity
  8
0
100
AcDbBlockBegin
  2
*D41
 70
    1
 10
0
 20
0
  3
*D41
  1

  0
LINE
  5
C8
100
AcDbEntity
  8
0
  6
ByBlock
 62
    4
370
   -2
100
AcDbLine
 10
466
 20
-302
 11
473
 21
-302
  0
SOLID
  5
C9
100
AcDbEntity
  8
0
  6
ByBlock
 62
    4
370
   -2
100
AcDbTrace
 10
466
 20
-302
 30
0
 11
466.1
 21
-301.9833486136891
 31
0
 12
466.1
 22
-302.0166513863109
 32
0
 13
466.1
 23
-302.0166513863109
 33
0
  0
SOLID
  5
CA
100
AcDbEntity
  8
0
  6
ByBlock
 62
    4
370
   -2
100
AcDbTrace
 10
473
 20
-302
 30
0
 11
472.9
 21
-302.0166513863109
 31
0
 12
472.9
 22
-301.9833486136891
 32
0
 13
472.9
 23
-301.9833486136891
 33
0
  0
MTEXT
  5
CB
100
AcDbEntity
  8
0
  6
CONTINUOUS
 62
    4
370
   -2
100
AcDbMText
 10
469.5
 20
-301.4375
 30
0
 40
1
 41
1.555555555555555
 71
    5
 72
    1
  1
7.0
  7
standard
210
0
220
0
230
1
 50
0
 73
    2
 44
1
  0
LINE
  5
CC
100
AcDbEntity
  8
0
  6
ByBlock
 62
    4
370
   -2
100
AcDbLine
 10
466
 20
-301.5
 11
466
 21
-302.125
  0
LINE
  5
CD
100
AcDbEntity
  8
0
  6
ByBlock
 62
    4
370
   -2
100
AcDbLine
 10
473
 20
-301.5
 11
473
 21
-302.125
  0
ENDBLK
  5
4F
330
4D
100
AcDbEntity
  8
0
100
AcDbBlockEnd
  0
BLOCK
  5
51
330
50
100
AcDbEntity
  8
0
100
AcDbBlockBegin
  2
*D24
 70
    1
 10
0
 20
0
  3
*D24
  1

  0
LINE
  5
CE
100
AcDbEntity
  8
0
  6
ByBlock
 62
    4
370
   -2
100
AcDbLine
 10
512
 20
-219
 11
518
 21
-219
  0
SOLID
  5
CF
100
AcDbEntity
  8
0
  6
ByBlock
 62
    4
370
   -2
100
AcDbTrace
 10
512
 20
-219
 30
0
 11
512.1
 21
-218.9833486136891
 31
0
 12
512.1
 22
-219.0166513863109
 32
0
 13
512.1
 23
-219.0166513863109
 33
0
  0
SOLID
  5
D0
100
AcDbEntity
  8
0
  6
ByBlock
 62
    4
370
   -2
100
AcDbTrace
 10
518
 20
-219
 30
0
 11
517.9
 21
-219.0166513863109
 31
0
 12
517.9
 22
-218.9833486136891
 32
0
 13
517.9
 23
-218.9833486136891
 33
0
  0
MTEXT
  5
D1
100
AcDbEntity
  8
0
  6
CONTINUOUS
 62
    4
370
   -2
100
AcDbMText
 10
515
 20
-218.4375
 30
0
 40
1
 41
1.555555555555618
 71
    5
 72
    1
  1
6.0
  7
standard
210
0
220
0
230
1
 50
0
 73
    2
 44
1
  0
LINE
  5
D2
100
AcDbEntity
  8
0
  6
ByBlock
 62
    4
370
   -2
100
AcDbLine
 10
512
 20
-219.5
 11
512
 21
-218.875
  0
LINE
  5
D3
100
AcDbEntity
  8
0
  6
ByBlock
 62
    4
370
   -2
100
AcDbLine
 10
518
 20
-219.5
 11
518
 21
-218.875
  0
ENDBLK
  5
52
330
50
100
AcDbEntity
  8
0
100
AcDbBlockEnd
  0
BLOCK
  5
54
330
53
100
AcDbEntity
  8
0
100
AcDbBlockBegin
  2
*D14
 70
    1
 10
0
 20
0
  3
*D14
  1

  0
LINE
  5
D4
100
AcDbEntity
  8
0
  6
ByBlock
 62
    4
370
   -2
100
AcDbLine
 10
515
 20
-243
 11
555
 21
-243
  0
SOLID
  5
D5
100
AcDbEntity
  8
0
  6
ByBlock
 62
    4
370
   -2
100
AcDbTrace
 10
515
 20
-243
 30
0
 11
515.1
 21
-242.9833486136891
 31
0
 12
515.1
 22
-243.0166513863109
 32
0
 13
515.1
 23
-243.0166513863109
 33
0
  0
SOLID
  5
D6
100
AcDbEntity
  8
0
  6
ByBlock
 62
    4
370
   -2
100
AcDbTrace
 10
555
 20
-243
 30
0
 11
554.9
 21
-243.0166513863109
 31
0
 12
554.9
 22
-242.9833486136891
 32
0
 13
554.9
 23
-242.9833486136891
 33
0
  0
MTEXT
  5
D7
100
AcDbEntity
  8
0
  6
CONTINUOUS
 62
    4
370
   -2
100
AcDbMText
 10
535
 20
-242.4375
 30
0
 40
1
 41
2.444444444444444
 71
    5
 72
    1
  1
40.0
  7
standard
210
0
220
0
230
1
 50
0
 73
    2
 44
1
  0
LINE
  5
D8
100
AcDbEntity
  8
0
  6
ByBlock
 62
    4
370
   -2
100
AcDbLine
 10
515
 20
-242.5
 11
515
 21
-243.125
  0
LINE
  5
D9
100
AcDbEntity
  8
0
  6
ByBlock
 62
    4
370
   -2
100
AcDbLine
 10
555
 20
-242.5
 11
555
 21
-243.125
  0
ENDBLK
  5
55
330
53
100
AcDbEntity
  8
0
100
AcDbBlockEnd
  0
BLOCK
  5
57
330
56
100
AcDbEntity
  8
0
100
AcDbBlockBegin
  2
*D40
 70
    1
 10
0
 20
0
  3
*D40
  1

  0
LINE
  5
DA
100
AcDbEntity
  8
0
  6
ByBlock
 62
    4
370
   -2
100
AcDbLine
 10
466
 20
-302
 11
460
 21
-302
  0
SOLID
  5
DB
100
AcDbEntity
  8
0
  6
ByBlock
 62
    4
370
   -2
100
AcDbTrace
 10
466
 20
-302
 30
0
 11
465.9
 21
-302.0166513863109
 31
0
 12
465.9
 22
-301.9833486136891
 32
0
 13
465.9
 23
-301.9833486136891
 33
0
  0
SOLID
  5
DC
100
AcDbEntity
  8
0
  6
ByBlock
 62
    4
370
   -2
100
AcDbTrace
 10
460
 20
-302
 30
0
 11
460.1
 21
-301.9833486136891
 31
0
 12
460.1
 22
-302.0166513863109
 32
0
 13
460.1
 23
-302.0166513863109
 33
0
  0
MTEXT
  5
DD
100
AcDbEntity
  8
0
  6
CONTINUOUS
 62
    4
370
   -2
100
AcDbMText
 10
463
 20
-301.4375
 30
0
 40
1
 41
1.555555555555618
 71
    5
 72
    1
  1
6.0
  7
standard
210
0
220
0
230
1
 50
360
 73
    2
 44
1
  0
LINE
  5
DE
100
AcDbEntity
  8
0
  6
ByBlock
 62
    4
370
   -2
100
AcDbLine
 10
466
 20
-301.5
 11
466
 21
-302.125
  0
LINE
  5
DF
100
AcDbEntity
  8
0
  6
ByBlock
 62
    4
370
   -2
100
AcDbLine
 10
460
 20
-301.5
 11
460
 21
-302.125
  0
ENDBLK
  5
58
330
56
100
AcDbEntity
  8
0
100
AcDbBlockEnd
  0
BLOCK
  5
5A
330
59
100
AcDbEntity
  8
0
100
AcDbBlockBegin
  2
*D20
 70
    1
 10
0
 20
0
  3
*D20
  1

  0
LINE
  5
E0
100
AcDbEntity
  8
0
  6
ByBlock
 62
    4
370
   -2
100
AcDbLine
 10
460
 20
-188
 11
496
 21
-188
  0
SOLID
  5
E1
100
AcDbEntity
  8
0
  6
ByBlock
 62
    4
370
   -2
100
AcDbTrace
 10
460
 20
-188
 30
0
 11
460.1
 21
-187.9833486136891
 31
0
 12
460.1
 22
-188.0166513863109
 32
0
 13
460.1
 23
-188.0166513863109
 33
0
  0
SOLID
  5
E2
100
AcDbEntity
  8
0
  6
ByBlock
 62
    4
370
   -2
100
AcDbTrace
 10
496
 20
-188
 30
0
 11
495.9
 21
-188.0166513863109
 31
0
 12
495.9
 22
-187.9833486136891
 32
0
 13
495.9
 23
-187.9833486136891
 33
0
  0
MTEXT
  5
E3
100
AcDbEntity
  8
0
  6
CONTINUOUS
 62
    4
370
   -2
100
AcDbMText
 10
478
 20
-187.4375
 30
0
 40
1
 41
2.333333333333457
 71
    5
 72
    1
  1
36.0
  7
standard
210
0
220
0
230
1
 50
0
 73
    2
 44
1
  0
LINE
  5
E4
100
AcDbEntity
  8
0
  6
ByBlock
 62
    4
370
   -2
100
AcDbLine
 10
460
 20
-188.5
 11
460
 21
-187.875
  0
LINE
  5
E5
100
AcDbEntity
  8
0
  6
ByBlock
 62
    4
370
   -2
100
AcDbLine
 10
496
 20
-188.5
 11
496
 21
-187.875
  0
ENDBLK
  5
5B
330
59
100
AcDbEntity
  8
0
100
AcDbBlockEnd
  0
BLOCK
  5
5D
330
5C
100
AcDbEntity
  8
0
100
AcDbBlockBegin
  2
*D19
 70
    1
 10
0
 20
0
  3
*D19
  1

  0
LINE
  5
E6
100
AcDbEntity
  8
0
  6
ByBlock
 62
    4
370
   -2
100
AcDbLine
 10
473
 20
-243
 11
460
 21
-243
  0
SOLID
  5
E7
100
AcDbEntity
  8
0
  6
ByBlock
 62
    4
370
   -2
100
AcDbTrace
 10
473
 20
-243
 30
0
 11
472.9
 21
-243.0166513863109
 31
0
 12
472.9
 22
-242.9833486136891
 32
0
 13
472.9
 23
-242.9833486136891
 33
0
  0
SOLID
  5
E8
100
AcDbEntity
  8
0
  6
ByBlock
 62
    4
370
   -2
100
AcDbTrace
 10
460
 20
-243
 30
0
 11
460.1
 21
-242.9833486136891
 31
0
 12
460.1
 22
-243.0166513863109
 32
0
 13
460.1
 23
-243.0166513863109
 33
0
  0
MTEXT
  5
E9
100
AcDbEntity
  8
0
  6
CONTINUOUS
 62
    4
370
   -2
100
AcDbMText
 10
466.5
 20
-242.4375
 30
0
 40
1
 41
2.111111111111173
 71
    5
 72
    1
  1
13.0
  7
standard
210
0
220
0
230
1
 50
360
 73
    2
 44
1
  0
LINE
  5
EA
100
AcDbEntity
  8
0
  6
ByBlock
 62
    4
370
   -2
100
AcDbLine
 10
473
 20
-242.5
 11
473
 21
-243.125
  0
LINE
  5
EB
100
AcDbEntity
  8
0
  6
ByBlock
 62
    4
370
   -2
100
AcDbLine
 10
460
 20
-242.5
 11
460
 21
-243.125
  0
ENDBLK
  5
5E
330
5C
100
AcDbEntity
  8
0
100
AcDbBlockEnd
  0
BLOCK
  5
60
330
5F
100
AcDbEntity
  8
0
100
AcDbBlockBegin
  2
*D8
 70
    1
 10
0
 20
0
  3
*D8
  1

  0
LINE
  5
EC
100
AcDbEntity
  8
0
  6
ByBlock
 62
    4
370
   -2
100
AcDbLine
 10
481.6
 20
-234.8
 11
486.4
 21
-231.2
  0
SOLID
  5
ED
100
AcDbEntity
  8
0
  6
ByBlock
 62
    4
370
   -2
100
AcDbTrace
 10
481.6
 20
-234.8
 30
0
 11
481.6700091682135
 21
-234.7266788909513
 31
0
 12
481.6899908317866
 22
-234.7533211090488
 32
0
 13
481.6899908317866
 23
-234.7533211090488
 33
0
  0
SOLID
  5
EE
100
AcDbEntity
  8
0
  6
ByBlock
 62
    4
370
   -2
100
AcDbTrace
 10
486.4
 20
-231.2
 30
0
 11
486.3299908317865
 21
-231.2733211090487
 31
0
 12
486.3100091682134
 22
-231.2466788909512
 32
0
 13
486.3100091682134
 23
-231.2466788909512
 33
0
  0
MTEXT
  5
EF
100
AcDbEntity
  8
0
  6
CONTINUOUS
 62
    4
370
   -2
100
AcDbMText
 10
483.6625
 20
-232.55
 30
0
 40
1
 41
1.555555555555618
 71
    5
 72
    1
  1
6.0
  7
standard
210
0
220
0
230
1
 50
36.86989764584445
 73
    2
 44
1
  0
ENDBLK
  5
61
330
5F
100
AcDbEntity
  8
0
100
AcDbBlockEnd
  0
BLOCK
  5
63
330
62
100
AcDbEntity
  8
0
100
AcDbBlockBegin
  2
*D37
 70
    1
 10
0
 20
0
  3
*D37
  1

  0
LINE
  5
F0
100
AcDbEntity
  8
0
  6
ByBlock
 62
    4
370
   -2
100
AcDbLine
 10
474
 20
-268
 11
488
 21
-268
  0
SOLID
  5
F1
100
AcDbEntity
  8
0
  6
ByBlock
 62
    4
370
   -2
100
AcDbTrace
 10
474
 20
-268
 30
0
 11
474.1
 21
-267.9833486136891
 31
0
 12
474.1
 22
-268.0166513863109
 32
0
 13
474.1
 23
-268.0166513863109
 33
0
  0
SOLID
  5
F2
100
AcDbEntity
  8
0
  6
ByBlock
 62
    4
370
   -2
100
AcDbTrace
 10
488
 20
-268
 30
0
 11
487.9
 21
-268.0166513863109
 31
0
 12
487.9
 22
-267.9833486136891
 32
0
 13
487.9
 23
-267.9833486136891
 33
0
  0
MTEXT
  5
F3
100
AcDbEntity
  8
0
  6
CONTINUOUS
 62
    4
370
   -2
100
AcDbMText
 10
481
 20
-267.4375
 30
0
 40
1
 41
2.222222222222222
 71
    5
 72
    1
  1
14.0
  7
standard
210
0
220
0
230
1
 50
0
 73
    2
 44
1
  0
LINE
  5
F4
100
AcDbEntity
  8
0
  6
ByBlock
 62
    4
370
   -2
100
AcDbLine
 10
474
 20
-268.5
 11
474
 21
-267.875
  0
LINE
  5
F5
100
AcDbEntity
  8
0
  6
ByBlock
 62
    4
370
   -2
100
AcDbLine
 10
488
 20
-268.5
 11
488
 21
-267.875
  0
ENDBLK
  5
64
330
62
100
AcDbEntity
  8
0
100
AcDbBlockEnd
  0
BLOCK
  5
66
330
65
100
AcDbEntity
  8
0
100
AcDbBlockBegin
  2
*D35
 70
    1
 10
0
 20
0
  3
*D35
  1

  0
LINE
  5
F6
100
AcDbEntity
  8
0
  6
ByBlock
 62
    4
370
   -2
100
AcDbLine
 10
491.641893749501
 20
-273.9438630975155
 11
484.358106250499
 21
-277.8099256512492
  0
SOLID
  5
F7
100
AcDbEntity
  8
0
  6
ByBlock
 62
    4
370
   -2
100
AcDbTrace
 10
491.641893749501
 20
-273.9438630975155
 30
0
 11
491.5613715037586
 21
-274.0054539783882
 31
0
 12
491.5457581998732
 22
-273.9760380064327
 32
0
 13
491.5457581998732
 23
-273.9760380064327
 33
0
  0
SOLID
  5
F8
100
AcDbEntity
  8
0
  6
ByBlock
 62
    4
370
   -2
100
AcDbTrace
 10
484.358106250499
 20
-277.8099256512492
 30
0
 11
484.4386284962414
 21
-277.7483347703765
 31
0
 12
484.4542418001268
 22
-277.777750742332
 32
0
 13
484.4542418001268
 23
-277.777750742332
 33
0
  0
MTEXT
  5
F9
100
AcDbEntity
  8
0
  6
CONTINUOUS
 62
    4
370
   -2
100
AcDbMText
 10
487.7362837162158
 20
-275.3800443249036
 30
0
 40
1
 41
1.555555555555555
 71
    5
 72
    1
  1
8.2
  7
standard
210
0
220
0
230
1
 50
27.95830789637335
 73
    2
 44
1
  0
ENDBLK
  5
67
330
65
100
AcDbEntity
  8
0
100
AcDbBlockEnd
  0
BLOCK
  5
69
330
68
100
AcDbEntity
  8
0
100
AcDbBlockBegin
  2
*D25
 70
    1
 10
0
 20
0
  3
*D25
  1

  0
LINE
  5
FA
100
AcDbEntity
  8
0
  6
ByBlock
 62
    4
370
   -2
100
AcDbLine
 10
552
 20
-219
 11
558
 21
-219
  0
SOLID
  5
FB
100
AcDbEntity
  8
0
  6
ByBlock
 62
    4
370
   -2
100
AcDbTrace
 10
552
 20
-219
 30
0
 11
552.1
 21
-218.9833486136891
 31
0
 12
552.1
 22
-219.0166513863109
 32
0
 13
552.1
 23
-219.0166513863109
 33
0
  0
SOLID
  5
FC
100
AcDbEntity
  8
0
  6
ByBlock
 62
    4
370
   -2
100
AcDbTrace
 10
558
 20
-219
 30
0
 11
557.9
 21
-219.0166513863109
 31
0
 12
557.9
 22
-218.9833486136891
 32
0
 13
557.9
 23
-218.9833486136891
 33
0
  0
MTEXT
  5
FD
100
AcDbEntity
  8
0
  6
CONTINUOUS
 62
    4
370
   -2
100
AcDbMText
 10
555
 20
-218.4375
 30
0
 40
1
 41
1.555555555555618
 71
    5
 72
    1
  1
6.0
  7
standard
210
0
220
0
230
1
 50
0
 73
    2
 44
1
  0
LINE
  5
FE
100
AcDbEntity
  8
0
  6
ByBlock
 62
    4
370
   -2
100
AcDbLine
 10
552
 20
-219.5
 11
552
 21
-218.875
  0
LINE
  5
FF
100
AcDbEntity
  8
0
  6
ByBlock
 62
    4
370
   -2
100
AcDbLine
 10
558
 20
-219.5
 11
558
 21
-218.875
  0
ENDBLK
  5
6A
330
68
100
AcDbEntity
  8
0
100
AcDbBlockEnd
  0
BLOCK
  5
6C
330
6B
100
AcDbEntity
  8
0
100
AcDbBlockBegin
  2
*D32
 70
    1
 10
0
 20
0
  3
*D32
  1

  0
LINE
  5
100
100
AcDbEntity
  8
0
  6
ByBlock
 62
    4
370
   -2
100
AcDbLine
 10
572
 20
-290
 11
572
 21
-300
  0
SOLID
  5
101
100
AcDbEntity
  8
0
  6
ByBlock
 62
    4
370
   -2
100
AcDbTrace
 10
572
 20
-290
 30
0
 11
572.016651386311
 21
-290.1
 31
0
 12
571.983348613689
 22
-290.1
 32
0
 13
571.983348613689
 23
-290.1
 33
0
  0
SOLID
  5
102
100
AcDbEntity
  8
0
  6
ByBlock
 62
    4
370
   -2
100
AcDbTrace
 10
572
 20
-300
 30
0
 11
571.983348613689
 21
-299.9
 31
0
 12
572.016651386311
 22
-299.9
 32
0
 13
572.016651386311
 23
-299.9
 33
0
  0
MTEXT
  5
103
100
AcDbEntity
  8
0
  6
CONTINUOUS
 62
    4
370
   -2
100
AcDbMText
 10
571.4375
 20
-295
 30
0
 40
1
 41
2.111111111111111
 71
    5
 72
    1
  1
10.0
  7
standard
210
0
220
0
230
1
 50
90
 73
    2
 44
1
  0
LINE
  5
104
100
AcDbEntity
  8
0
  6
ByBlock
 62
    4
370
   -2
100
AcDbLine
 10
572
 20
-290
 11
571.875
 21
-290
  0
LINE
  5
105
100
AcDbEntity
  8
0
  6
ByBlock
 62
    4
370
   -2
100
AcDbLine
 10
572
 20
-300
 11
571.875
 21
-300
  0
ENDBLK
  5
6D
330
6B
100
AcDbEntity
  8
0
100
AcDbBlockEnd
  0
BLOCK
  5
6F
330
6E
100
AcDbEntity
  8
0
100
AcDbBlockBegin
  2
*D4
 70
    1
 10
0
 20
0
  3
*D4
  1

  0
LINE
  5
106
100
AcDbEntity
  8
0
  6
ByBlock
 62
    4
370
   -2
100
AcDbLine
 10
546.4250707428746
 20
-228.1449575542753
 11
563.5749292571254
 21
-217.8550424457247
  0
SOLID
  5
107
100
AcDbEntity
  8
0
  6
ByBlock
 62
    4
370
   -2
100
AcDbTrace
 10
546.4250707428746
 20
-228.1449575542753
 30
0
 11
546.5022529678669
 21
-228.0792295327676
 31
0
 12
546.5193871030248
 22
-228.1077864246975
 32
0
 13
546.5193871030248
 23
-228.1077864246975
 33
0
  0
SOLID
  5
108
100
AcDbEntity
  8
0
  6
ByBlock
 62
    4
370
   -2
100
AcDbTrace
 10
563.5749292571254
 20
-217.8550424457247
 30
0
 11
563.4977470321331
 21
-217.9207704672324
 31
0
 12
563.4806128969752
 22
-217.8922135753025
 32
0
 13
563.4806128969752
 23
-217.8922135753025
 33
0
  0
MTEXT
  5
109
100
AcDbEntity
  8
0
  6
CONTINUOUS
 62
    4
370
   -2
100
AcDbMText
 10
554.710596137572
 20
-222.5176602292867
 30
0
 40
1
 41
2.333333333333333
 71
    5
 72
    1
  1
20.0
  7
standard
210
0
220
0
230
1
 50
30.96375653207377
 73
    2
 44
1
  0
ENDBLK
  5
70
330
6E
100
AcDbEntity
  8
0
100
AcDbBlockEnd
  0
BLOCK
  5
72
330
71
100
AcDbEntity
  8
0
100
AcDbBlockBegin
  2
*D13
 70
    1
 10
0
 20
0
  3
*D13
  1

  0
LINE
  5
10A
100
AcDbEntity
  8
0
  6
ByBlock
 62
    4
370
   -2
100
AcDbLine
 10
454.1881368989297
 20
-190.0049123977617
 11
454.1881368989297
 21
-239.9089263543722
  0
SOLID
  5
10B
100
AcDbEntity
  8
0
  6
ByBlock
 62
    4
370
   -2
100
AcDbTrace
 10
454.1881368989297
 20
-190.0049123977617
 30
0
 11
454.2047882852406
 21
-190.1049123977617
 31
0
 12
454.1714855126188
 22
-190.1049123977617
 32
0
 13
454.1714855126188
 23
-190.1049123977617
 33
0
  0
SOLID
  5
10C
100
AcDbEntity
  8
0
  6
ByBlock
 62
    4
370
   -2
100
AcDbTrace
 10
454.1881368989297
 20
-239.9089263543722
 30
0
 11
454.1714855126188
 21
-239.8089263543722
 31
0
 12
454.2047882852406
 22
-239.8089263543722
 32
0
 13
454.2047882852406
 23
-239.8089263543722
 33
0
  0
MTEXT
  5
10D
100
AcDbEntity
  8
0
  6
CONTINUOUS
 62
    4
370
   -2
100
AcDbMText
 10
453.6256368989297
 20
-214.9569193760669
 30
0
 40
1
 41
2.444444444444444
 71
    5
 72
    1
  1
49.9
  7
standard
210
0
220
0
230
1
 50
90
 73
    2
 44
1
  0
LINE
  5
10E
100
AcDbEntity
  8
0
  6
ByBlock
 62
    4
370
   -2
100
AcDbLine
 10
454.6881368989297
 20
-190.0049123977617
 11
454.0631368989297
 21
-190.0049123977617
  0
LINE
  5
10F
100
AcDbEntity
  8
0
  6
ByBlock
 62
    4
370
   -2
100
AcDbLine
 10
454.6881368989297
 20
-239.9089263543722
 11
454.0631368989297
 21
-239.9089263543722
  0
ENDBLK
  5
73
330
71
100
AcDbEntity
  8
0
100
AcDbBlockEnd
  0
BLOCK
  5
75
330
74
100
AcDbEntity
  8
0
100
AcDbBlockBegin
  2
*D38
 70
    1
 10
0
 20
0
  3
*D38
  1

  0
LINE
  5
110
100
AcDbEntity
  8
0
  6
ByBlock
 62
    4
370
   -2
100
AcDbLine
 10
480
 20
-276
 11
480
 21
-300
  0
SOLID
  5
111
100
AcDbEntity
  8
0
  6
ByBlock
 62
    4
370
   -2
100
AcDbTrace
 10
480
 20
-276
 30
0
 11
480.0166513863109
 21
-276.1
 31
0
 12
479.9833486136891
 22
-276.1
 32
0
 13
479.9833486136891
 23
-276.1
 33
0
  0
SOLID
  5
112
100
AcDbEntity
  8
0
  6
ByBlock
 62
    4
370
   -2
100
AcDbTrace
 10
480
 20
-300
 30
0
 11
479.9833486136891
 21
-299.9
 31
0
 12
480.0166513863109
 22
-299.9
 32
0
 13
480.0166513863109
 23
-299.9
 33
0
  0
MTEXT
  5
113
100
AcDbEntity
  8
0
  6
CONTINUOUS
 62
    4
370
   -2
100
AcDbMText
 10
479.4375
 20
-288
 30
0
 40
1
 41
2.444444444444444
 71
    5
 72
    1
  1
24.0
  7
standard
210
0
220
0
230
1
 50
90
 73
    2
 44
1
  0
LINE
  5
114
100
AcDbEntity
  8
0
  6
ByBlock
 62
    4
370
   -2
100
AcDbLine
 10
479.5
 20
-276
 11
480.125
 21
-276
  0
LINE
  5
115
100
AcDbEntity
  8
0
  6
ByBlock
 62
    4
370
   -2
100
AcDbLine
 10
479.5
 20
-300
 11
480.125
 21
-300
  0
ENDBLK
  5
76
330
74
100
AcDbEntity
  8
0
100
AcDbBlockEnd
  0
BLOCK
  5
78
330
77
100
AcDbEntity
  8
0
100
AcDbBlockBegin
  2
*D22
 70
    1
 10
0
 20
0
  3
*D22
  1

  0
LINE
  5
116
100
AcDbEntity
  8
0
  6
ByBlock
 62
    4
370
   -2
100
AcDbLine
 10
534
 20
-188
 11
570
 21
-188
  0
SOLID
  5
117
100
AcDbEntity
  8
0
  6
ByBlock
 62
    4
370
   -2
100
AcDbTrace
 10
534
 20
-188
 30
0
 11
534.1
 21
-187.9833486136891
 31
0
 12
534.1
 22
-188.0166513863109
 32
0
 13
534.1
 23
-188.0166513863109
 33
0
  0
SOLID
  5
118
100
AcDbEntity
  8
0
  6
ByBlock
 62
    4
370
   -2
100
AcDbTrace
 10
570
 20
-188
 30
0
 11
569.9
 21
-188.0166513863109
 31
0
 12
569.9
 22
-187.9833486136891
 32
0
 13
569.9
 23
-187.9833486136891
 33
0
  0
MTEXT
  5
119
100
AcDbEntity
  8
0
  6
CONTINUOUS
 62
    4
370
   -2
100
AcDbMText
 10
552
 20
-187.4375
 30
0
 40
1
 41
2.333333333333457
 71
    5
 72
    1
  1
36.0
  7
standard
210
0
220
0
230
1
 50
0
 73
    2
 44
1
  0
LINE
  5
11A
100
AcDbEntity
  8
0
  6
ByBlock
 62
    4
370
   -2
100
AcDbLine
 10
534
 20
-188.5
 11
534
 21
-187.875
  0
LINE
  5
11B
100
AcDbEntity
  8
0
  6
ByBlock
 62
    4
370
   -2
100
AcDbLine
 10
570
 20
-188.5
 11
570
 21
-187.875
  0
ENDBLK
  5
79
330
77
100
AcDbEntity
  8
0
100
AcDbBlockEnd
  0
BLOCK
  5
7B
330
7A
100
AcDbEntity
  8
0
100
AcDbBlockBegin
  2
*D23
 70
    1
 10
0
 20
0
  3
*D23
  1

  0
LINE
  5
11C
100
AcDbEntity
  8
0
  6
ByBlock
 62
    4
370
   -2
100
AcDbLine
 10
536
 20
-194
 11
536
 21
-205
  0
SOLID
  5
11D
100
AcDbEntity
  8
0
  6
ByBlock
 62
    4
370
   -2
100
AcDbTrace
 10
536
 20
-194
 30
0
 11
536.016651386311
 21
-194.1
 31
0
 12
535.983348613689
 22
-194.1
 32
0
 13
535.983348613689
 23
-194.1
 33
0
  0
SOLID
  5
11E
100
AcDbEntity
  8
0
  6
ByBlock
 62
    4
370
   -2
100
AcDbTrace
 10
536
 20
-205
 30
0
 11
535.983348613689
 21
-204.9
 31
0
 12
536.016651386311
 22
-204.9
 32
0
 13
536.016651386311
 23
-204.9
 33
0
  0
MTEXT
  5
11F
100
AcDbEntity
  8
0
  6
CONTINUOUS
 62
    4
370
   -2
100
AcDbMText
 10
535.4375
 20
-199.5
 30
0
 40
1
 41
1.888888888888889
 71
    5
 72
    1
  1
11.0
  7
standard
210
0
220
0
230
1
 50
90
 73
    2
 44
1
  0
LINE
  5
120
100
AcDbEntity
  8
0
  6
ByBlock
 62
    4
370
   -2
100
AcDbLine
 10
535.5
 20
-194
 11
536.125
 21
-194
  0
LINE
  5
121
100
AcDbEntity
  8
0
  6
ByBlock
 62
    4
370
   -2
100
AcDbLine
 10
535.5
 20
-205
 11
536.125
 21
-205
  0
ENDBLK
  5
7C
330
7A
100
AcDbEntity
  8
0
100
AcDbBlockEnd
  0
BLOCK
  5
7E
330
7D
100
AcDbEntity
  8
0
100
AcDbBlockBegin
  2
*D39
 70
    1
 10
0
 20
0
  3
*D39
  1

  0
LINE
  5
122
100
AcDbEntity
  8
0
  6
ByBlock
 62
    4
370
   -2
100
AcDbLine
 10
494
 20
-276
 11
494
 21
-300
  0
SOLID
  5
123
100
AcDbEntity
  8
0
  6
ByBlock
 62
    4
370
   -2
100
AcDbTrace
 10
494
 20
-276
 30
0
 11
494.0166513863109
 21
-276.1
 31
0
 12
493.9833486136891
 22
-276.1
 32
0
 13
493.9833486136891
 23
-276.1
 33
0
  0
SOLID
  5
124
100
AcDbEntity
  8
0
  6
ByBlock
 62
    4
370
   -2
100
AcDbTrace
 10
494
 20
-300
 30
0
 11
493.9833486136891
 21
-299.9
 31
0
 12
494.0166513863109
 22
-299.9
 32
0
 13
494.0166513863109
 23
-299.9
 33
0
  0
MTEXT
  5
125
100
AcDbEntity
  8
0
  6
CONTINUOUS
 62
    4
370
   -2
100
AcDbMText
 10
493.4375
 20
-288
 30
0
 40
1
 41
2.444444444444444
 71
    5
 72
    1
  1
24.0
  7
standard
210
0
220
0
230
1
 50
90
 73
    2
 44
1
  0
LINE
  5
126
100
AcDbEntity
  8
0
  6
ByBlock
 62
    4
370
   -2
100
AcDbLine
 10
493.5
 20
-276
 11
494.125
 21
-276
  0
LINE
  5
127
100
AcDbEntity
  8
0
  6
ByBlock
 62
    4
370
   -2
100
AcDbLine
 10
493.5
 20
-300
 11
494.125
 21
-300
  0
ENDBLK
  5
7F
330
7D
100
AcDbEntity
  8
0
100
AcDbBlockEnd
  0
BLOCK
  5
81
330
80
100
AcDbEntity
  8
0
100
AcDbBlockBegin
  2
*D16
 70
    1
 10
0
 20
0
  3
*D16
  1

  0
LINE
  5
128
100
AcDbEntity
  8
0
  6
ByBlock
 62
    4
370
   -2
100
AcDbLine
 10
495
 20
-243
 11
490
 21
-243
  0
SOLID
  5
129
100
AcDbEntity
  8
0
  6
ByBlock
 62
    4
370
   -2
100
AcDbTrace
 10
495
 20
-243
 30
0
 11
494.9
 21
-243.0166513863109
 31
0
 12
494.9
 22
-242.9833486136891
 32
0
 13
494.9
 23
-242.9833486136891
 33
0
  0
SOLID
  5
12A
100
AcDbEntity
  8
0
  6
ByBlock
 62
    4
370
   -2
100
AcDbTrace
 10
490
 20
-243
 30
0
 11
490.1
 21
-242.9833486136891
 31
0
 12
490.1
 22
-243.0166513863109
 32
0
 13
490.1
 23
-243.0166513863109
 33
0
  0
MTEXT
  5
12B
100
AcDbEntity
  8
0
  6
CONTINUOUS
 62
    4
370
   -2
100
AcDbMText
 10
492.5
 20
-242.4375
 30
0
 40
1
 41
1.555555555555618
 71
    5
 72
    1
  1
5.0
  7
standard
210
0
220
0
230
1
 50
360
 73
    2
 44
1
  0
LINE
  5
12C
100
AcDbEntity
  8
0
  6
ByBlock
 62
    4
370
   -2
100
AcDbLine
 10
495
 20
-242.5
 11
495
 21
-243.125
  0
LINE
  5
12D
100
AcDbEntity
  8
0
  6
ByBlock
 62
    4
370
   -2
100
AcDbLine
 10
490
 20
-242.5
 11
490
 21
-243.125
  0
ENDBLK
  5
82
330
80
100
AcDbEntity
  8
0
100
AcDbBlockEnd
  0
BLOCK
  5
84
330
83
100
AcDbEntity
  8
0
100
AcDbBlockBegin
  2
*D28
 70
    1
 10
0
 20
0
  3
*D28
  1

  0
LINE
  5
12E
100
AcDbEntity
  8
0
  6
ByBlock
 62
    4
370
   -2
100
AcDbLine
 10
458
 20
-290
 11
458
 21
-300
  0
SOLID
  5
12F
100
AcDbEntity
  8
0
  6
ByBlock
 62
    4
370
   -2
100
AcDbTrace
 10
458
 20
-290
 30
0
 11
458.0166513863109
 21
-290.1
 31
0
 12
457.9833486136891
 22
-290.1
 32
0
 13
457.9833486136891
 23
-290.1
 33
0
  0
SOLID
  5
130
100
AcDbEntity
  8
0
  6
ByBlock
 62
    4
370
   -2
100
AcDbTrace
 10
458
 20
-300
 30
0
 11
457.9833486136891
 21
-299.9
 31
0
 12
458.0166513863109
 22
-299.9
 32
0
 13
458.0166513863109
 23
-299.9
 33
0
  0
MTEXT
  5
131
100
AcDbEntity
  8
0
  6
CONTINUOUS
 62
    4
370
   -2
100
AcDbMText
 10
457.4375
 20
-295
 30
0
 40
1
 41
2.111111111111111
 71
    5
 72
    1
  1
10.0
  7
standard
210
0
220
0
230
1
 50
90
 73
    2
 44
1
  0
LINE
  5
132
100
AcDbEntity
  8
0
  6
ByBlock
 62
    4
370
   -2
100
AcDbLine
 10
458.5
 20
-290
 11
457.875
 21
-290
  0
LINE
  5
133
100
AcDbEntity
  8
0
  6
ByBlock
 62
    4
370
   -2
100
AcDbLine
 10
458.5
 20
-300
 11
457.875
 21
-300
  0
ENDBLK
  5
85
330
83
100
AcDbEntity
  8
0
100
AcDbBlockEnd
  0
BLOCK
  5
87
330
86
100
AcDbEntity
  8
0
100
AcDbBlockBegin
  2
*D18
 70
    1
 10
0
 20
0
  3
*D18
  1

  0
LINE
  5
134
100
AcDbEntity
  8
0
  6
ByBlock
 62
    4
370
   -2
100
AcDbLine
 10
484
 20
-243
 11
473
 21
-243
  0
SOLID
  5
135
100
AcDbEntity
  8
0
  6
ByBlock
 62
    4
370
   -2
100
AcDbTrace
 10
484
 20
-243
 30
0
 11
483.9
 21
-243.0166513863109
 31
0
 12
483.9
 22
-242.9833486136891
 32
0
 13
483.9
 23
-242.9833486136891
 33
0
  0
SOLID
  5
136
100
AcDbEntity
  8
0
  6
ByBlock
 62
    4
370
   -2
100
AcDbTrace
 10
473
 20
-243
 30
0
 11
473.1
 21
-242.9833486136891
 31
0
 12
473.1
 22
-243.0166513863109
 32
0
 13
473.1
 23
-243.0166513863109
 33
0
  0
MTEXT
  5
137
100
AcDbEntity
  8
0
  6
CONTINUOUS
 62
    4
370
   -2
100
AcDbMText
 10
478.5
 20
-242.4375
 30
0
 40
1
 41
1.888888888888889
 71
    5
 72
    1
  1
11.0
  7
standard
210
0
220
0
230
1
 50
360
 73
    2
 44
1
  0
LINE
  5
138
100
AcDbEntity
  8
0
  6
ByBlock
 62
    4
370
   -2
100
AcDbLine
 10
484
 20
-242.5
 11
484
 21
-243.125
  0
LINE
  5
139
100
AcDbEntity
  8
0
  6
ByBlock
 62
    4
370
   -2
100
AcDbLine
 10
473
 20
-242.5
 11
473
 21
-243.125
  0
ENDBLK
  5
88
330
86
100
AcDbEntity
  8
0
100
AcDbBlockEnd
  0
BLOCK
  5
8A
330
89
100
AcDbEntity
  8
0
100
AcDbBlockBegin
  2
*D11
 70
    1
 10
0
 20
0
  3
*D11
  1

  0
LINE
  5
13A
100
AcDbEntity
  8
0
  6
ByBlock
 62
    4
370
   -2
100
AcDbLine
 10
495
 20
-236
 11
495
 21
-240
  0
SOLID
  5
13B
100
AcDbEntity
  8
0
  6
ByBlock
 62
    4
370
   -2
100
AcDbTrace
 10
495
 20
-236
 30
0
 11
495.0166513863109
 21
-236.1
 31
0
 12
494.9833486136891
 22
-236.1
 32
0
 13
494.9833486136891
 23
-236.1
 33
0
  0
SOLID
  5
13C
100
AcDbEntity
  8
0
  6
ByBlock
 62
    4
370
   -2
100
AcDbTrace
 10
495
 20
-240
 30
0
 11
494.9833486136891
 21
-239.9
 31
0
 12
495.0166513863109
 22
-239.9
 32
0
 13
495.0166513863109
 23
-239.9
 33
0
  0
MTEXT
  5
13D
100
AcDbEntity
  8
0
  6
CONTINUOUS
 62
    4
370
   -2
100
AcDbMText
 10
494.4375
 20
-238
 30
0
 40
1
 41
1.666666666666667
 71
    5
 72
    1
  1
4.0
  7
standard
210
0
220
0
230
1
 50
90
 73
    2
 44
1
  0
LINE
  5
13E
100
AcDbEntity
  8
0
  6
ByBlock
 62
    4
370
   -2
100
AcDbLine
 10
495.5
 20
-236
 11
494.875
 21
-236
  0
LINE
  5
13F
100
AcDbEntity
  8
0
  6
ByBlock
 62
    4
370
   -2
100
AcDbLine
 10
495
 20
-240
 11
494.875
 21
-240
  0
ENDBLK
  5
8B
330
89
100
AcDbEntity
  8
0
100
AcDbBlockEnd
  0
BLOCK
  5
8D
330
8C
100
AcDbEntity
  8
0
100
AcDbBlockBegin
  2
*D34
 70
    1
 10
0
 20
0
  3
*D34
  1

  0
LINE
  5
140
100
AcDbEntity
  8
0
  6
ByBlock
 62
    4
370
   -2
100
AcDbLine
 10
477.794733192202
 20
-274.7350889359327
 11
470.205266807798
 21
-277.2649110640673
  0
SOLID
  5
141
100
AcDbEntity
  8
0
  6
ByBlock
 62
    4
370
   -2
100
AcDbTrace
 10
477.794733192202
 20
-274.7350889359327
 30
0
 11
477.7051304930912
 21
-274.7825086046169
 31
0
 12
477.6945992317028
 22
-274.7509148204518
 32
0
 13
477.6945992317028
 23
-274.7509148204518
 33
0
  0
SOLID
  5
142
100
AcDbEntity
  8
0
  6
ByBlock
 62
    4
370
   -2
100
AcDbTrace
 10
470.205266807798
 20
-277.2649110640673
 30
0
 11
470.2948695069088
 21
-277.2174913953831
 31
0
 12
470.3054007682972
 22
-277.2490851795482
 32
0
 13
470.3054007682972
 23
-277.2490851795482
 33
0
  0
MTEXT
  5
143
100
AcDbEntity
  8
0
  6
CONTINUOUS
 62
    4
370
   -2
100
AcDbMText
 10
473.8221218816155
 20
-275.4663656448466
 30
0
 40
1
 41
1.555555555555555
 71
    5
 72
    1
  1
8.0
  7
standard
210
0
220
0
230
1
 50
18.43494882292201
 73
    2
 44
1
  0
ENDBLK
  5
8E
330
8C
100
AcDbEntity
  8
0
100
AcDbBlockEnd
  0
BLOCK
  5
90
330
8F
100
AcDbEntity
  8
0
100
AcDbBlockBegin
  2
*D26
 70
    1
 10
0
 20
0
  3
*D26
  1

  0
LINE
  5
144
100
AcDbEntity
  8
0
  6
ByBlock
 62
    4
370
   -2
100
AcDbLine
 10
489.5434956903214
 20
-234.9934612492257
 11
490.5047213610567
 21
-234.9934612492257
  0
SOLID
  5
145
100
AcDbEntity
  8
0
  6
ByBlock
 62
    4
370
   -2
100
AcDbTrace
 10
489.5434956903214
 20
-234.9934612492257
 30
0
 11
489.6434956903214
 21
-234.9768098629148
 31
0
 12
489.6434956903214
 22
-235.0101126355366
 32
0
 13
489.6434956903214
 23
-235.0101126355366
 33
0
  0
SOLID
  5
146
100
AcDbEntity
  8
0
  6
ByBlock
 62
    4
370
   -2
100
AcDbTrace
 10
490.5047213610567
 20
-234.9934612492257
 30
0
 11
490.4047213610567
 21
-235.0101126355366
 31
0
 12
490.4047213610567
 22
-234.9768098629148
 32
0
 13
490.4047213610567
 23
-234.9768098629148
 33
0
  0
MTEXT
  5
147
100
AcDbEntity
  8
0
  6
CONTINUOUS
 62
    4
370
   -2
100
AcDbMText
 10
491.2338880277234
 20
-234.4309612492257
 30
0
 40
1
 41
1.333333333333333
 71
    5
 72
    1
  1
1.0
  7
standard
210
0
220
0
230
1
 50
0
 73
    2
 44
1
  0
LINE
  5
148
100
AcDbEntity
  8
0
  6
ByBlock
 62
    4
370
   -2
100
AcDbLine
 10
489.5434956903214
 20
-235.4934612492257
 11
489.5434956903214
 21
-234.8684612492257
  0
LINE
  5
149
100
AcDbEntity
  8
0
  6
ByBlock
 62
    4
370
   -2
100
AcDbLine
 10
490.5047213610567
 20
-235.4934612492257
 11
490.5047213610567
 21
-234.8684612492257
  0
ENDBLK
  5
91
330
8F
100
AcDbEntity
  8
0
100
AcDbBlockEnd
  0
BLOCK
  5
93
330
92
100
AcDbEntity
  8
0
100
AcDbBlockBegin
  2
*D12
 70
    1
 10
0
 20
0
  3
*D12
  1

  0
LINE
  5
14A
100
AcDbEntity
  8
0
  6
ByBlock
 62
    4
370
   -2
100
AcDbLine
 10
460
 20
-185.0761208958742
 11
570
 21
-185.0761208958742
  0
SOLID
  5
14B
100
AcDbEntity
  8
0
  6
ByBlock
 62
    4
370
   -2
100
AcDbTrace
 10
460
 20
-185.0761208958742
 30
0
 11
460.1
 21
-185.0594695095633
 31
0
 12
460.1
 22
-185.0927722821851
 32
0
 13
460.1
 23
-185.0927722821851
 33
0
  0
SOLID
  5
14C
100
AcDbEntity
  8
0
  6
ByBlock
 62
    4
370
   -2
100
AcDbTrace
 10
570
 20
-185.0761208958742
 30
0
 11
569.9
 21
-185.0927722821851
 31
0
 12
569.9
 22
-185.0594695095633
 32
0
 13
569.9
 23
-185.0594695095633
 33
0
  0
MTEXT
  5
14D
100
AcDbEntity
  8
0
  6
CONTINUOUS
 62
    4
370
   -2
100
AcDbMText
 10
515
 20
-184.5136208958742
 30
0
 40
1
 41
2.666666666666667
 71
    5
 72
    1
  1
110.0
  7
standard
210
0
220
0
230
1
 50
0
 73
    2
 44
1
  0
LINE
  5
14E
100
AcDbEntity
  8
0
  6
ByBlock
 62
    4
370
   -2
100
AcDbLine
 10
460
 20
-185.5761208958742
 11
460
 21
-184.9511208958742
  0
LINE
  5
14F
100
AcDbEntity
  8
0
  6
ByBlock
 62
    4
370
   -2
100
AcDbLine
 10
570
 20
-185.5761208958742
 11
570
 21
-184.9511208958742
  0
ENDBLK
  5
94
330
92
100
AcDbEntity
  8
0
100
AcDbBlockEnd
  0
BLOCK
  5
96
330
95
100
AcDbEntity
  8
0
100
AcDbBlockBegin
  2
*D10
 70
    1
 10
0
 20
0
  3
*D10
  1

  0
LINE
  5
150
100
AcDbEntity
  8
0
  6
ByBlock
 62
    4
370
   -2
100
AcDbLine
 10
490
 20
-236
 11
490
 21
-240
  0
SOLID
  5
151
100
AcDbEntity
  8
0
  6
ByBlock
 62
    4
370
   -2
100
AcDbTrace
 10
490
 20
-236
 30
0
 11
490.0166513863109
 21
-236.1
 31
0
 12
489.9833486136891
 22
-236.1
 32
0
 13
489.9833486136891
 23
-236.1
 33
0
  0
SOLID
  5
152
100
AcDbEntity
  8
0
  6
ByBlock
 62
    4
370
   -2
100
AcDbTrace
 10
490
 20
-240
 30
0
 11
489.9833486136891
 21
-239.9
 31
0
 12
490.0166513863109
 22
-239.9
 32
0
 13
490.0166513863109
 23
-239.9
 33
0
  0
MTEXT
  5
153
100
AcDbEntity
  8
0
  6
CONTINUOUS
 62
    4
370
   -2
100
AcDbMText
 10
489.4375
 20
-238
 30
0
 40
1
 41
1.666666666666667
 71
    5
 72
    1
  1
4.0
  7
standard
210
0
220
0
230
1
 50
90
 73
    2
 44
1
  0
LINE
  5
154
100
AcDbEntity
  8
0
  6
ByBlock
 62
    4
370
   -2
100
AcDbLine
 10
490
 20
-236
 11
489.875
 21
-236
  0
LINE
  5
155
100
AcDbEntity
  8
0
  6
ByBlock
 62
    4
370
   -2
100
AcDbLine
 10
490
 20
-240
 11
489.875
 21
-240
  0
ENDBLK
  5
97
330
95
100
AcDbEntity
  8
0
100
AcDbBlockEnd
  0
BLOCK
  5
99
330
98
100
AcDbEntity
  8
0
100
AcDbBlockBegin
  2
*D21
 70
    1
 10
0
 20
0
  3
*D21
  1

  0
LINE
  5
156
100
AcDbEntity
  8
0
  6
ByBlock
 62
    4
370
   -2
100
AcDbLine
 10
496
 20
-188
 11
534
 21
-188
  0
SOLID
  5
157
100
AcDbEntity
  8
0
  6
ByBlock
 62
    4
370
   -2
100
AcDbTrace
 10
496
 20
-188
 30
0
 11
496.1
 21
-187.9833486136891
 31
0
 12
496.1
 22
-188.0166513863109
 32
0
 13
496.1
 23
-188.0166513863109
 33
0
  0
SOLID
  5
158
100
AcDbEntity
  8
0
  6
ByBlock
 62
    4
370
   -2
100
AcDbTrace
 10
534
 20
-188
 30
0
 11
533.9
 21
-188.0166513863109
 31
0
 12
533.9
 22
-187.9833486136891
 32
0
 13
533.9
 23
-187.9833486136891
 33
0
  0
MTEXT
  5
159
100
AcDbEntity
  8
0
  6
CONTINUOUS
 62
    4
370
   -2
100
AcDbMText
 10
515
 20
-187.4375
 30
0
 40
1
 41
2.333333333333395
 71
    5
 72
    1
  1
38.0
  7
standard
210
0
220
0
230
1
 50
0
 73
    2
 44
1
  0
LINE
  5
15A
100
AcDbEntity
  8
0
  6
ByBlock
 62
    4
370
   -2
100
AcDbLine
 10
496
 20
-188.5
 11
496
 21
-187.875
  0
LINE
  5
15B
100
AcDbEntity
  8
0
  6
ByBlock
 62
    4
370
   -2
100
AcDbLine
 10
534
 20
-188.5
 11
534
 21
-187.875
  0
ENDBLK
  5
9A
330
98
100
AcDbEntity
  8
0
100
AcDbBlockEnd
  0
BLOCK
  5
9C
330
9B
100
AcDbEntity
  8
0
100
AcDbBlockBegin
  2
*D1
 70
    1
 10
0
 20
0
  3
*D1
  1

  0
LINE
  5
15C
100
AcDbEntity
  8
0
  6
ByBlock
 62
    4
370
   -2
100
AcDbLine
 10
555
 20
-223
 11
555
 21
-240
  0
SOLID
  5
15D
100
AcDbEntity
  8
0
  6
ByBlock
 62
    4
370
   -2
100
AcDbTrace
 10
555
 20
-223
 30
0
 11
555.016651386311
 21
-223.1
 31
0
 12
554.983348613689
 22
-223.1
 32
0
 13
554.983348613689
 23
-223.1
 33
0
  0
SOLID
  5
15E
100
AcDbEntity
  8
0
  6
ByBlock
 62
    4
370
   -2
100
AcDbTrace
 10
555
 20
-240
 30
0
 11
554.983348613689
 21
-239.9
 31
0
 12
555.016651386311
 22
-239.9
 32
0
 13
555.016651386311
 23
-239.9
 33
0
  0
MTEXT
  5
15F
100
AcDbEntity
  8
0
  6
CONTINUOUS
 62
    4
370
   -2
100
AcDbMText
 10
554.4375
 20
-231.5
 30
0
 40
1
 41
2.111111111111111
 71
    5
 72
    1
  1
17.0
  7
standard
210
0
220
0
230
1
 50
90
 73
    2
 44
1
  0
LINE
  5
160
100
AcDbEntity
  8
0
  6
ByBlock
 62
    4
370
   -2
100
AcDbLine
 10
555
 20
-223
 11
554.875
 21
-223
  0
LINE
  5
161
100
AcDbEntity
  8
0
  6
ByBlock
 62
    4
370
   -2
100
AcDbLine
 10
555
 20
-240
 11
554.875
 21
-240
  0
ENDBLK
  5
9D
330
9B
100
AcDbEntity
  8
0
100
AcDbBlockEnd
  0
BLOCK
  5
9F
330
9E
100
AcDbEntity
  8
0
100
AcDbBlockBegin
  2
*D31
 70
    1
 10
0
 20
0
  3
*D31
  1

  0
LINE
  5
162
100
AcDbEntity
  8
0
  6
ByBlock
 62
    4
370
   -2
100
AcDbLine
 10
572
 20
-276
 11
572
 21
-290
  0
SOLID
  5
163
100
AcDbEntity
  8
0
  6
ByBlock
 62
    4
370
   -2
100
AcDbTrace
 10
572
 20
-276
 30
0
 11
572.016651386311
 21
-276.1
 31
0
 12
571.983348613689
 22
-276.1
 32
0
 13
571.983348613689
 23
-276.1
 33
0
  0
SOLID
  5
164
100
AcDbEntity
  8
0
  6
ByBlock
 62
    4
370
   -2
100
AcDbTrace
 10
572
 20
-290
 30
0
 11
571.983348613689
 21
-289.9
 31
0
 12
572.016651386311
 22
-289.9
 32
0
 13
572.016651386311
 23
-289.9
 33
0
  0
MTEXT
  5
165
100
AcDbEntity
  8
0
  6
CONTINUOUS
 62
    4
370
   -2
100
AcDbMText
 10
571.4375
 20
-283
 30
0
 40
1
 41
2.222222222222222
 71
    5
 72
    1
  1
14.0
  7
standard
210
0
220
0
230
1
 50
90
 73
    2
 44
1
  0
LINE
  5
166
100
AcDbEntity
  8
0
  6
ByBlock
 62
    4
370
   -2
100
AcDbLine
 10
571.5
 20
-276
 11
572.125
 21
-276
  0
LINE
  5
167
100
AcDbEntity
  8
0
  6
ByBlock
 62
    4
370
   -2
100
AcDbLine
 10
571.5
 20
-290
 11
572.125
 21
-290
  0
ENDBLK
  5
A0
330
9E
100
AcDbEntity
  8
0
100
AcDbBlockEnd
  0
BLOCK
  5
A2
330
A1
100
AcDbEntity
  8
0
100
AcDbBlockBegin
  2
*D30
 70
    1
 10
0
 20
0
  3
*D30
  1

  0
LINE
  5
168
100
AcDbEntity
  8
0
  6
ByBlock
 62
    4
370
   -2
100
AcDbLine
 10
562
 20
-302
 11
514
 21
-302
  0
SOLID
  5
169
100
AcDbEntity
  8
0
  6
ByBlock
 62
    4
370
   -2
100
AcDbTrace
 10
562
 20
-302
 30
0
 11
561.9
 21
-302.0166513863109
 31
0
 12
561.9
 22
-301.9833486136891
 32
0
 13
561.9
 23
-301.9833486136891
 33
0
  0
SOLID
  5
16A
100
AcDbEntity
  8
0
  6
ByBlock
 62
    4
370
   -2
100
AcDbTrace
 10
514
 20
-302
 30
0
 11
514.1
 21
-301.9833486136891
 31
0
 12
514.1
 22
-302.0166513863109
 32
0
 13
514.1
 23
-302.0166513863109
 33
0
  0
MTEXT
  5
16B
100
AcDbEntity
  8
0
  6
CONTINUOUS
 62
    4
370
   -2
100
AcDbMText
 10
538
 20
-301.4375
 30
0
 40
1
 41
2.444444444444444
 71
    5
 72
    1
  1
48.0
  7
standard
210
0
220
0
230
1
 50
360
 73
    2
 44
1
  0
LINE
  5
16C
100
AcDbEntity
  8
0
  6
ByBlock
 62
    4
370
   -2
100
AcDbLine
 10
562
 20
-301.5
 11
562
 21
-302.125
  0
LINE
  5
16D
100
AcDbEntity
  8
0
  6
ByBlock
 62
    4
370
   -2
100
AcDbLine
 10
514
 20
-301.5
 11
514
 21
-302.125
  0
ENDBLK
  5
A3
330
A1
100
AcDbEntity
  8
0
100
AcDbBlockEnd
  0
BLOCK
  5
A5
330
A4
100
AcDbEntity
  8
0
100
AcDbBlockBegin
  2
*D33
 70
    1
 10
0
 20
0
  3
*D33
  1

  0
LINE
  5
16E
100
AcDbEntity
  8
0
  6
ByBlock
 62
    4
370
   -2
100
AcDbLine
 10
458
 20
-288
 11
458
 21
-290
  0
SOLID
  5
16F
100
AcDbEntity
  8
0
  6
ByBlock
 62
    4
370
   -2
100
AcDbTrace
 10
458
 20
-288
 30
0
 11
458.0166513863109
 21
-288.1
 31
0
 12
457.9833486136891
 22
-288.1
 32
0
 13
457.9833486136891
 23
-288.1
 33
0
  0
SOLID
  5
170
100
AcDbEntity
  8
0
  6
ByBlock
 62
    4
370
   -2
100
AcDbTrace
 10
458
 20
-290
 30
0
 11
457.9833486136891
 21
-289.9
 31
0
 12
458.0166513863109
 22
-289.9
 32
0
 13
458.0166513863109
 23
-289.9
 33
0
  0
MTEXT
  5
171
100
AcDbEntity
  8
0
  6
CONTINUOUS
 62
    4
370
   -2
100
AcDbMText
 10
457.4375
 20
-289
 30
0
 40
1
 41
1.555555555555555
 71
    5
 72
    1
  1
2.0
  7
standard
210
0
220
0
230
1
 50
90
 73
    2
 44
1
  0
LINE
  5
172
100
AcDbEntity
  8
0
  6
ByBlock
 62
    4
370
   -2
100
AcDbLine
 10
458.5
 20
-288
 11
457.875
 21
-288
  0
LINE
  5
173
100
AcDbEntity
  8
0
  6
ByBlock
 62
    4
370
   -2
100
AcDbLine
 10
458.5
 20
-290
 11
457.875
 21
-290
  0
ENDBLK
  5
A6
330
A4
100
AcDbEntity
  8
0
100
AcDbBlockEnd
  0
BLOCK
  5
A8
330
A7
100
AcDbEntity
  8
0
100
AcDbBlockBegin
  2
*D15
 70
    1
 10
0
 20
0
  3
*D15
  1

  0
LINE
  5
174
100
AcDbEntity
  8
0
  6
ByBlock
 62
    4
370
   -2
100
AcDbLine
 10
555
 20
-243
 11
570
 21
-243
  0
SOLID
  5
175
100
AcDbEntity
  8
0
  6
ByBlock
 62
    4
370
   -2
100
AcDbTrace
 10
555
 20
-243
 30
0
 11
555.1
 21
-242.9833486136891
 31
0
 12
555.1
 22
-243.0166513863109
 32
0
 13
555.1
 23
-243.0166513863109
 33
0
  0
SOLID
  5
176
100
AcDbEntity
  8
0
  6
ByBlock
 62
    4
370
   -2
100
AcDbTrace
 10
570
 20
-243
 30
0
 11
569.9
 21
-243.0166513863109
 31
0
 12
569.9
 22
-242.9833486136891
 32
0
 13
569.9
 23
-242.9833486136891
 33
0
  0
MTEXT
  5
177
100
AcDbEntity
  8
0
  6
CONTINUOUS
 62
    4
370
   -2
100
AcDbMText
 10
562.5
 20
-242.4375
 30
0
 40
1
 41
2.111111111111173
 71
    5
 72
    1
  1
15.0
  7
standard
210
0
220
0
230
1
 50
0
 73
    2
 44
1
  0
LINE
  5
178
100
AcDbEntity
  8
0
  6
ByBlock
 62
    4
370
   -2
100
AcDbLine
 10
555
 20
-242.5
 11
555
 21
-243.125
  0
LINE
  5
179
100
AcDbEntity
  8
0
  6
ByBlock
 62
    4
370
   -2
100
AcDbLine
 10
570
 20
-242.5
 11
570
 21
-243.125
  0
ENDBLK
  5
A9
330
A7
100
AcDbEntity
  8
0
100
AcDbBlockEnd
  0
BLOCK
  5
AB
330
AA
100
AcDbEntity
  8
0
100
AcDbBlockBegin
  2
*D9
 70
    1
 10
0
 20
0
  3
*D9
  1

  0
LINE
  5
17A
100
AcDbEntity
  8
0
  6
ByBlock
 62
    4
370
   -2
100
AcDbLine
 10
484
 20
-233
 11
484
 21
-240
  0
SOLID
  5
17B
100
AcDbEntity
  8
0
  6
ByBlock
 62
    4
370
   -2
100
AcDbTrace
 10
484
 20
-233
 30
0
 11
484.0166513863109
 21
-233.1
 31
0
 12
483.9833486136891
 22
-233.1
 32
0
 13
483.9833486136891
 23
-233.1
 33
0
  0
SOLID
  5
17C
100
AcDbEntity
  8
0
  6
ByBlock
 62
    4
370
   -2
100
AcDbTrace
 10
484
 20
-240
 30
0
 11
483.9833486136891
 21
-239.9
 31
0
 12
484.0166513863109
 22
-239.9
 32
0
 13
484.0166513863109
 23
-239.9
 33
0
  0
MTEXT
  5
17D
100
AcDbEntity
  8
0
  6
CONTINUOUS
 62
    4
370
   -2
100
AcDbMText
 10
483.4375
 20
-236.5
 30
0
 40
1
 41
1.555555555555555
 71
    5
 72
    1
  1
7.0
  7
standard
210
0
220
0
230
1
 50
90
 73
    2
 44
1
  0
LINE
  5
17E
100
AcDbEntity
  8
0
  6
ByBlock
 62
    4
370
   -2
100
AcDbLine
 10
484
 20
-233
 11
483.875
 21
-233
  0
LINE
  5
17F
100
AcDbEntity
  8
0
  6
ByBlock
 62
    4
370
   -2
100
AcDbLine
 10
484
 20
-240
 11
483.875
 21
-240
  0
ENDBLK
  5
AC
330
AA
100
AcDbEntity
  8
0
100
AcDbBlockEnd
  0
BLOCK
  5
AE
330
AD
100
AcDbEntity
  8
0
100
AcDbBlockBegin
  2
*D2
 70
    1
 10
0
 20
0
  3
*D2
  1

  0
LINE
  5
180
100
AcDbEntity
  8
0
  6
ByBlock
 62
    4
370
   -2
100
AcDbLine
 10
473
 20
-223
 11
473
 21
-240
  0
SOLID
  5
181
100
AcDbEntity
  8
0
  6
ByBlock
 62
    4
370
   -2
100
AcDbTrace
 10
473
 20
-223
 30
0
 11
473.0166513863109
 21
-223.1
 31
0
 12
472.9833486136891
 22
-223.1
 32
0
 13
472.9833486136891
 23
-223.1
 33
0
  0
SOLID
  5
182
100
AcDbEntity
  8
0
  6
ByBlock
 62
    4
370
   -2
100
AcDbTrace
 10
473
 20
-240
 30
0
 11
472.9833486136891
 21
-239.9
 31
0
 12
473.0166513863109
 22
-239.9
 32
0
 13
473.0166513863109
 23
-239.9
 33
0
  0
MTEXT
  5
183
100
AcDbEntity
  8
0
  6
CONTINUOUS
 62
    4
370
   -2
100
AcDbMText
 10
472.4375
 20
-231.5
 30
0
 40
1
 41
2.111111111111111
 71
    5
 72
    1
  1
17.0
  7
standard
210
0
220
0
230
1
 50
90
 73
    2
 44
1
  0
LINE
  5
184
100
AcDbEntity
  8
0
  6
ByBlock
 62
    4
370
   -2
100
AcDbLine
 10
473
 20
-223
 11
472.875
 21
-223
  0
LINE
  5
185
100
AcDbEntity
  8
0
  6
ByBlock
 62
    4
370
   -2
100
AcDbLine
 10
473
 20
-240
 11
472.875
 21
-240
  0
ENDBLK
  5
AF
330
AD
100
AcDbEntity
  8
0
100
AcDbBlockEnd
  0
BLOCK
  5
B1
330
B0
100
AcDbEntity
  8
0
100
AcDbBlockBegin
  2
*D17
 70
    1
 10
0
 20
0
  3
*D17
  1

  0
LINE
  5
186
100
AcDbEntity
  8
0
  6
ByBlock
 62
    4
370
   -2
100
AcDbLine
 10
490
 20
-243
 11
484
 21
-243
  0
SOLID
  5
187
100
AcDbEntity
  8
0
  6
ByBlock
 62
    4
370
   -2
100
AcDbTrace
 10
490
 20
-243
 30
0
 11
489.9
 21
-243.0166513863109
 31
0
 12
489.9
 22
-242.9833486136891
 32
0
 13
489.9
 23
-242.9833486136891
 33
0
  0
SOLID
  5
188
100
AcDbEntity
  8
0
  6
ByBlock
 62
    4
370
   -2
100
AcDbTrace
 10
484
 20
-243
 30
0
 11
484.1
 21
-242.9833486136891
 31
0
 12
484.1
 22
-243.0166513863109
 32
0
 13
484.1
 23
-243.0166513863109
 33
0
  0
MTEXT
  5
189
100
AcDbEntity
  8
0
  6
CONTINUOUS
 62
    4
370
   -2
100
AcDbMText
 10
487
 20
-242.4375
 30
0
 40
1
 41
1.555555555555618
 71
    5
 72
    1
  1
6.0
  7
standard
210
0
220
0
230
1
 50
360
 73
    2
 44
1
  0
LINE
  5
18A
100
AcDbEntity
  8
0
  6
ByBlock
 62
    4
370
   -2
100
AcDbLine
 10
490
 20
-242.5
 11
490
 21
-243.125
  0
LINE
  5
18B
100
AcDbEntity
  8
0
  6
ByBlock
 62
    4
370
   -2
100
AcDbLine
 10
484
 20
-242.5
 11
484
 21
-243.125
  0
ENDBLK
  5
B2
330
B0
100
AcDbEntity
  8
0
100
AcDbBlockEnd
  0
BLOCK
  5
B4
330
B3
100
AcDbEntity
  8
0
100
AcDbBlockBegin
  2
*D6
 70
    1
 10
0
 20
0
  3
*D6
  1

  0
LINE
  5
18C
100
AcDbEntity
  8
0
  6
ByBlock
 62
    4
370
   -2
100
AcDbLine
 10
515
 20
-223
 11
515
 21
-240
  0
SOLID
  5
18D
100
AcDbEntity
  8
0
  6
ByBlock
 62
    4
370
   -2
100
AcDbTrace
 10
515
 20
-223
 30
0
 11
515.016651386311
 21
-223.1
 31
0
 12
514.983348613689
 22
-223.1
 32
0
 13
514.983348613689
 23
-223.1
 33
0
  0
SOLID
  5
18E
100
AcDbEntity
  8
0
  6
ByBlock
 62
    4
370
   -2
100
AcDbTrace
 10
515
 20
-240
 30
0
 11
514.983348613689
 21
-239.9
 31
0
 12
515.016651386311
 22
-239.9
 32
0
 13
515.016651386311
 23
-239.9
 33
0
  0
MTEXT
  5
18F
100
AcDbEntity
  8
0
  6
CONTINUOUS
 62
    4
370
   -2
100
AcDbMText
 10
514.4375
 20
-231.5
 30
0
 40
1
 41
2.111111111111111
 71
    5
 72
    1
  1
17.0
  7
standard
210
0
220
0
230
1
 50
90
 73
    2
 44
1
  0
LINE
  5
190
100
AcDbEntity
  8
0
  6
ByBlock
 62
    4
370
   -2
100
AcDbLine
 10
515
 20
-223
 11
514.875
 21
-223
  0
LINE
  5
191
100
AcDbEntity
  8
0
  6
ByBlock
 62
    4
370
   -2
100
AcDbLine
 10
515
 20
-240
 11
514.875
 21
-240
  0
ENDBLK
  5
B5
330
B3
100
AcDbEntity
  8
0
100
AcDbBlockEnd
  0
BLOCK
  5
B7
330
B6
100
AcDbEntity
  8
0
100
AcDbBlockBegin
  2
*D29
 70
    1
 10
0
 20
0
  3
*D29
  1

  0
LINE
  5
192
100
AcDbEntity
  8
0
  6
ByBlock
 62
    4
370
   -2
100
AcDbLine
 10
562
 20
-302
 11
570
 21
-302
  0
SOLID
  5
193
100
AcDbEntity
  8
0
  6
ByBlock
 62
    4
370
   -2
100
AcDbTrace
 10
562
 20
-302
 30
0
 11
562.1
 21
-301.9833486136891
 31
0
 12
562.1
 22
-302.0166513863109
 32
0
 13
562.1
 23
-302.0166513863109
 33
0
  0
SOLID
  5
194
100
AcDbEntity
  8
0
  6
ByBlock
 62
    4
370
   -2
100
AcDbTrace
 10
570
 20
-302
 30
0
 11
569.9
 21
-302.0166513863109
 31
0
 12
569.9
 22
-301.9833486136891
 32
0
 13
569.9
 23
-301.9833486136891
 33
0
  0
MTEXT
  5
195
100
AcDbEntity
  8
0
  6
CONTINUOUS
 62
    4
370
   -2
100
AcDbMText
 10
566
 20
-301.4375
 30
0
 40
1
 41
1.555555555555555
 71
    5
 72
    1
  1
8.0
  7
standard
210
0
220
0
230
1
 50
0
 73
    2
 44
1
  0
LINE
  5
196
100
AcDbEntity
  8
0
  6
ByBlock
 62
    4
370
   -2
100
AcDbLine
 10
562
 20
-301.5
 11
562
 21
-302.125
  0
LINE
  5
197
100
AcDbEntity
  8
0
  6
ByBlock
 62
    4
370
   -2
100
AcDbLine
 10
570
 20
-301.5
 11
570
 21
-302.125
  0
ENDBLK
  5
B8
330
B6
100
AcDbEntity
  8
0
100
AcDbBlockEnd
  0
BLOCK
  5
BA
330
B9
100
AcDbEntity
  8
0
100
AcDbBlockBegin
  2
*D7
 70
    1
 10
0
 20
0
  3
*D7
  1

  0
LINE
  5
198
100
AcDbEntity
  8
0
  6
ByBlock
 62
    4
370
   -2
100
AcDbLine
 10
496
 20
-194
 11
496
 21
-190
  0
SOLID
  5
199
100
AcDbEntity
  8
0
  6
ByBlock
 62
    4
370
   -2
100
AcDbTrace
 10
496
 20
-194
 30
0
 11
495.9833486136891
 21
-193.9
 31
0
 12
496.0166513863109
 22
-193.9
 32
0
 13
496.0166513863109
 23
-193.9
 33
0
  0
SOLID
  5
19A
100
AcDbEntity
  8
0
  6
ByBlock
 62
    4
370
   -2
100
AcDbTrace
 10
496
 20
-190
 30
0
 11
496.0166513863109
 21
-190.1
 31
0
 12
495.9833486136891
 22
-190.1
 32
0
 13
495.9833486136891
 23
-190.1
 33
0
  0
MTEXT
  5
19B
100
AcDbEntity
  8
0
  6
CONTINUOUS
 62
    4
370
   -2
100
AcDbMText
 10
495.4375
 20
-192
 30
0
 40
1
 41
1.666666666666667
 71
    5
 72
    1
  1
4.0
  7
standard
210
0
220
0
230
1
 50
90
 73
    2
 44
1
  0
LINE
  5
19C
100
AcDbEntity
  8
0
  6
ByBlock
 62
    4
370
   -2
100
AcDbLine
 10
496
 20
-194
 11
495.875
 21
-194
  0
LINE
  5
19D
100
AcDbEntity
  8
0
  6
ByBlock
 62
    4
370
   -2
100
AcDbLine
 10
496
 20
-190
 11
495.875
 21
-190
  0
ENDBLK
  5
BB
330
B9
100
AcDbEntity
  8
0
100
AcDbBlockEnd
  0
BLOCK
  5
BD
330
BC
100
AcDbEntity
  8
0
100
AcDbBlockBegin
  2
*D27
 70
    1
 10
0
 20
0
  3
*D27
  1

  0
LINE
  5
19E
100
AcDbEntity
  8
0
  6
ByBlock
 62
    4
370
   -2
100
AcDbLine
 10
494.5243923477681
 20
-234.9934612492257
 11
495.5030948488805
 21
-234.9934612492257
  0
SOLID
  5
19F
100
AcDbEntity
  8
0
  6
ByBlock
 62
    4
370
   -2
100
AcDbTrace
 10
494.5243923477681
 20
-234.9934612492257
 30
0
 11
494.6243923477682
 21
-234.9768098629148
 31
0
 12
494.6243923477682
 22
-235.0101126355366
 32
0
 13
494.6243923477682
 23
-235.0101126355366
 33
0
  0
SOLID
  5
1A0
100
AcDbEntity
  8
0
  6
ByBlock
 62
    4
370
   -2
100
AcDbTrace
 10
495.5030948488805
 20
-234.9934612492257
 30
0
 11
495.4030948488805
 21
-235.0101126355366
 31
0
 12
495.4030948488805
 22
-234.9768098629148
 32
0
 13
495.4030948488805
 23
-234.9768098629148
 33
0
  0
MTEXT
  5
1A1
100
AcDbEntity
  8
0
  6
CONTINUOUS
 62
    4
370
   -2
100
AcDbMText
 10
496.2322615155472
 20
-234.4309612492257
 30
0
 40
1
 41
1.333333333333333
 71
    5
 72
    1
  1
1.0
  7
standard
210
0
220
0
230
1
 50
0
 73
    2
 44
1
  0
LINE
  5
1A2
100
AcDbEntity
  8
0
  6
ByBlock
 62
    4
370
   -2
100
AcDbLine
 10
494.5243923477681
 20
-235.4934612492257
 11
494.5243923477681
 21
-234.8684612492257
  0
LINE
  5
1A3
100
AcDbEntity
  8
0
  6
ByBlock
 62
    4
370
   -2
100
AcDbLine
 10
495.5030948488805
 20
-235.4934612492257
 11
495.5030948488805
 21
-234.8684612492257
  0
ENDBLK
  5
BE
330
BC
100
AcDbEntity
  8
0
100
AcDbBlockEnd
  0
BLOCK
  5
C0
330
BF
100
AcDbEntity
  8
0
100
AcDbBlockBegin
  2
*D3
 70
    1
 10
0
 20
0
  3
*D3
  1

  0
LINE
  5
1A4
100
AcDbEntity
  8
0
  6
ByBlock
 62
    4
370
   -2
100
AcDbLine
 10
467.3431457505076
 20
-228.6568542494924
 11
478.6568542494924
 21
-217.3431457505076
  0
SOLID
  5
1A5
100
AcDbEntity
  8
0
  6
ByBlock
 62
    4
370
   -2
100
AcDbTrace
 10
467.3431457505076
 20
-228.6568542494924
 30
0
 11
467.4020821204496
 21
-228.5743692631971
 31
0
 12
467.4256307368028
 22
-228.5979178795504
 32
0
 13
467.4256307368028
 23
-228.5979178795504
 33
0
  0
SOLID
  5
1A6
100
AcDbEntity
  8
0
  6
ByBlock
 62
    4
370
   -2
100
AcDbTrace
 10
478.6568542494924
 20
-217.3431457505076
 30
0
 11
478.5979178795504
 21
-217.4256307368029
 31
0
 12
478.5743692631972
 22
-217.4020821204496
 32
0
 13
478.5743692631972
 23
-217.4020821204496
 33
0
  0
MTEXT
  5
1A7
100
AcDbEntity
  8
0
  6
CONTINUOUS
 62
    4
370
   -2
100
AcDbMText
 10
472.6022524355826
 20
-222.6022524355826
 30
0
 40
1
 41
2.111111111111173
 71
    5
 72
    1
  1
16.0
  7
standard
210
0
220
0
230
1
 50
44.99999999999986
 73
    2
 44
1
  0
ENDBLK
  5
C1
330
BF
100
AcDbEntity
  8
0
100
AcDbBlockEnd
  0
BLOCK
  5
C3
330
C2
100
AcDbEntity
  8
0
100
AcDbBlockBegin
  2
*D36
 70
    1
 10
0
 20
0
  3
*D36
  1

  0
LINE
  5
1A8
100
AcDbEntity
  8
0
  6
ByBlock
 62
    4
370
   -2
100
AcDbLine
 10
474
 20
-268
 11
460
 21
-268
  0
SOLID
  5
1A9
100
AcDbEntity
  8
0
  6
ByBlock
 62
    4
370
   -2
100
AcDbTrace
 10
474
 20
-268
 30
0
 11
473.9
 21
-268.0166513863109
 31
0
 12
473.9
 22
-267.9833486136891
 32
0
 13
473.9
 23
-267.9833486136891
 33
0
  0
SOLID
  5
1AA
100
AcDbEntity
  8
0
  6
ByBlock
 62
    4
370
   -2
100
AcDbTrace
 10
460
 20
-268
 30
0
 11
460.1
 21
-267.9833486136891
 31
0
 12
460.1
 22
-268.0166513863109
 32
0
 13
460.1
 23
-268.0166513863109
 33
0
  0
MTEXT
  5
1AB
100
AcDbEntity
  8
0
  6
CONTINUOUS
 62
    4
370
   -2
100
AcDbMText
 10
467
 20
-267.4375
 30
0
 40
1
 41
2.222222222222222
 71
    5
 72
    1
  1
14.0
  7
standard
210
0
220
0
230
1
 50
360
 73
    2
 44
1
  0
LINE
  5
1AC
100
AcDbEntity
  8
0
  6
ByBlock
 62
    4
370
   -2
100
AcDbLine
 10
474
 20
-268.5
 11
474
 21
-267.875
  0
LINE
  5
1AD
100
AcDbEntity
  8
0
  6
ByBlock
 62
    4
370
   -2
100
AcDbLine
 10
460
 20
-268.5
 11
460
 21
-267.875
  0
ENDBLK
  5
C4
330
C2
100
AcDbEntity
  8
0
100
AcDbBlockEnd
  0
BLOCK
  5
C6
330
C5
100
AcDbEntity
  8
0
100
AcDbBlockBegin
  2
*D5
 70
    1
 10
0
 20
0
  3
*D5
  1

  0
LINE
  5
1AE
100
AcDbEntity
  8
0
  6
ByBlock
 62
    4
370
   -2
100
AcDbLine
 10
528.4164078649987
 20
-216.2917960675006
 11
501.5835921350013
 21
-229.7082039324994
  0
SOLID
  5
1AF
100
AcDbEntity
  8
0
  6
ByBlock
 62
    4
370
   -2
100
AcDbTrace
 10
528.4164078649987
 20
-216.2917960675006
 30
0
 11
528.3344118722409
 21
-216.3514108797349
 31
0
 12
528.3195184195566
 22
-216.3216239743663
 32
0
 13
528.3195184195566
 23
-216.3216239743663
 33
0
  0
SOLID
  5
1B0
100
AcDbEntity
  8
0
  6
ByBlock
 62
    4
370
   -2
100
AcDbTrace
 10
501.5835921350013
 20
-229.7082039324994
 30
0
 11
501.6655881277591
 21
-229.6485891202651
 31
0
 12
501.6804815804435
 22
-229.6783760256337
 32
0
 13
501.6804815804435
 23
-229.6783760256337
 33
0
  0
MTEXT
  5
1B1
100
AcDbEntity
  8
0
  6
CONTINUOUS
 62
    4
370
   -2
100
AcDbMText
 10
514.7484423525312
 20
-222.4968847050625
 30
0
 40
1
 41
2.333333333333395
 71
    5
 72
    1
  1
30.0
  7
standard
210
0
220
0
230
1
 50
26.56505117707812
 73
    2
 44
1
  0
ENDBLK
  5
C7
330
C5
100
AcDbEntity
  8
0
100
AcDbBlockEnd
  0
ENDSEC
  0
SECTION
  2
ENTITIES
  0
LWPOLYLINE
  5
1B2
100
AcDbEntity
  8
0
  6
ByLayer
 62
  256
370
   -1
100
AcDbPolyline
 90
    4
 70
    1
 43
0
 10
460
 20
-190
 10
570
 20
-190
 10
570
 20
-240
 10
460
 20
-240
  0
LWPOLYLINE
  5
1B3
100
AcDbEntity
  8
0
  6
ByLayer
 62
  256
370
   -1
100
AcDbPolyline
 90
    4
 70
    1
 43
0
 10
496
 20
-194
 10
534
 20
-194
 10
534
 20
-205
 10
496
 20
-205
  0
CIRCLE
  5
1B4
100
AcDbEntity
  8
0
  6
ByLayer
 62
  256
370
   -1
100
AcDbCircle
 10
555
 20
-223
 40
10
  0
CIRCLE
  5
1B5
100
AcDbEntity
  8
0
  6
ByLayer
 62
  256
370
   -1
100
AcDbCircle
 10
515
 20
-223
 40
15
  0
CIRCLE
  5
1B6
100
AcDbEntity
  8
0
  6
ByLayer
 62
  256
370
   -1
100
AcDbCircle
 10
473
 20
-223
 40
8
  0
DIMENSION
  5
1B7
100
AcDbEntity
  8
0
  6
ByLayer
 62
  256
370
   -1
100
AcDbDimension
  2
*D1
 10
555
 20
-240
 30
0
 11
554.4375
 21
-231.5
 31
0
 70
   32
 71
    5
  3
Standard
 53
0
210
0
220
0
230
1
100
AcDbAlignedDimension
 13
555
 23
-223
 33
0
 14
555
 24
-240
 34
0
 50
90
100
AcDbRotatedDimension
  0
DIMENSION
  5
1B8
100
AcDbEntity
  8
0
  6
ByLayer
 62
  256
370
   -1
100
AcDbDimension
  2
*D2
 10
473
 20
-240
 30
0
 11
472.4375
 21
-231.5
 31
0
 70
   32
 71
    5
  3
Standard
 53
0
210
0
220
0
230
1
100
AcDbAlignedDimension
 13
473
 23
-223
 33
0
 14
473
 24
-240
 34
0
 50
90
100
AcDbRotatedDimension
  0
DIMENSION
  5
1B9
100
AcDbEntity
  8
0
  6
ByLayer
 62
  256
370
   -1
100
AcDbDimension
  2
*D3
 10
467.3431457505076
 20
-228.6568542494924
 30
0
 11
472.6022524355826
 21
-222.6022524355826
 31
0
 70
   35
 71
    5
  3
Standard
 53
0
210
0
220
0
230
1
100
AcDbDiametricDimension
 15
478.6568542494924
 25
-217.3431457505076
 35
0
 40
0
  0
DIMENSION
  5
1BA
100
AcDbEntity
  8
0
  6
ByLayer
 62
  256
370
   -1
100
AcDbDimension
  2
*D4
 10
546.4250707428746
 20
-228.1449575542753
 30
0
 11
554.710596137572
 21
-222.5176602292867
 31
0
 70
   35
 71
    5
  3
Standard
 53
0
210
0
220
0
230
1
100
AcDbDiametricDimension
 15
563.5749292571254
 25
-217.8550424457247
 35
0
 40
0
  0
DIMENSION
  5
1BB
100
AcDbEntity
  8
0
  6
ByLayer
 62
  256
370
   -1
100
AcDbDimension
  2
*D5
 10
528.4164078649987
 20
-216.2917960675006
 30
0
 11
514.7484423525312
 21
-222.4968847050625
 31
0
 70
   35
 71
    5
  3
Standard
 53
0
210
0
220
0
230
1
100
AcDbDiametricDimension
 15
501.5835921350013
 25
-229.7082039324994
 35
0
 40
0
  0
DIMENSION
  5
1BC
100
AcDbEntity
  8
0
  6
ByLayer
 62
  256
370
   -1
100
AcDbDimension
  2
*D6
 10
515
 20
-240
 30
0
 11
514.4375
 21
-231.5
 31
0
 70
   32
 71
    5
  3
Standard
 53
0
210
0
220
0
230
1
100
AcDbAlignedDimension
 13
515
 23
-223
 33
0
 14
515
 24
-240
 34
0
 50
90
100
AcDbRotatedDimension
  0
DIMENSION
  5
1BD
100
AcDbEntity
  8
0
  6
ByLayer
 62
  256
370
   -1
100
AcDbDimension
  2
*D7
 10
496
 20
-190
 30
0
 11
495.4375
 21
-192
 31
0
 70
   32
 71
    5
  3
Standard
 53
0
210
0
220
0
230
1
100
AcDbAlignedDimension
 13
496
 23
-194
 33
0
 14
496
 24
-190
 34
0
 50
90
100
AcDbRotatedDimension
  0
CIRCLE
  5
1BE
100
AcDbEntity
  8
0
  6
ByLayer
 62
  256
370
   -1
100
AcDbCircle
 10
484
 20
-233
 40
3
  0
DIMENSION
  5
1BF
100
AcDbEntity
  8
0
  6
ByLayer
 62
  256
370
   -1
100
AcDbDimension
  2
*D8
 10
481.6
 20
-234.8
 30
0
 11
483.6625
 21
-232.55
 31
0
 70
   35
 71
    5
 72
    0
  3
Standard
 53
0
210
0
220
0
230
1
100
AcDbDiametricDimension
 15
486.4
 25
-231.2
 35
0
 40
0
  0
DIMENSION
  5
1C0
100
AcDbEntity
  8
0
  6
ByLayer
 62
  256
370
   -1
100
AcDbDimension
  2
*D9
 10
484
 20
-240
 30
0
 11
483.4375
 21
-236.5
 31
0
 70
   32
 71
    5
 72
    0
  3
Standard
 53
0
210
0
220
0
230
1
100
AcDbAlignedDimension
 13
484
 23
-233
 33
0
 14
484
 24
-240
 34
0
 50
90
100
AcDbRotatedDimension
  0
CIRCLE
  5
1C1
100
AcDbEntity
  8
0
  6
ByLayer
 62
    1
370
   -1
100
AcDbCircle
 10
490
 20
-236
 40
0.5
  0
DIMENSION
  5
1C2
100
AcDbEntity
  8
0
  6
ByLayer
 62
    1
370
   -1
100
AcDbDimension
  2
*D10
 10
490
 20
-240
 30
0
 11
489.4375
 21
-238
 31
0
 70
   32
 71
    5
  3
Standard
 53
0
210
0
220
0
230
1
100
AcDbAlignedDimension
 13
490
 23
-236
 33
0
 14
490
 24
-240
 34
0
 50
90
100
AcDbRotatedDimension
  0
CIRCLE
  5
1C3
100
AcDbEntity
  8
0
  6
ByLayer
 62
    1
370
   -1
100
AcDbCircle
 10
495
 20
-236
 40
0.5
  0
DIMENSION
  5
1C4
100
AcDbEntity
  8
0
  6
ByLayer
 62
    1
370
   -1
100
AcDbDimension
  2
*D11
 10
495
 20
-240
 30
0
 11
494.4375
 21
-238
 31
0
 70
   32
 71
    5
  3
Standard
 53
0
210
0
220
0
230
1
100
AcDbAlignedDimension
 13
496
 23
-236
 33
0
 14
495
 24
-240
 34
0
 50
90
100
AcDbRotatedDimension
  0
DIMENSION
  5
1C5
100
AcDbEntity
  8
0
  6
ByLayer
 62
  256
370
   -1
100
AcDbDimension
  2
*D12
 10
570
 20
-185.0761208958742
 30
0
 11
515
 21
-184.5136208958742
 31
0
 70
   32
 71
    5
 72
    0
  3
Standard
 53
0
210
0
220
0
230
1
100
AcDbAlignedDimension
 13
460
 23
-190
 33
0
 14
570
 24
-190
 34
0
100
AcDbRotatedDimension
  0
DIMENSION
  5
1C6
100
AcDbEntity
  8
0
  6
ByLayer
 62
  256
370
   -1
100
AcDbDimension
  2
*D13
 10
454.1881368989297
 20
-239.9089263543722
 30
0
 11
453.6256368989297
 21
-214.9569193760669
 31
0
 70
   32
 71
    5
 72
    0
  3
Standard
 53
0
210
0
220
0
230
1
100
AcDbAlignedDimension
 13
460.1026867011946
 23
-190.0049123977617
 33
0
 14
460.1026867011946
 24
-239.9089263543722
 34
0
 50
90
100
AcDbRotatedDimension
  0
DIMENSION
  5
1C7
100
AcDbEntity
  8
0
  6
ByLayer
 62
  256
370
   -1
100
AcDbDimension
  2
*D14
 10
555
 20
-243
 30
0
 11
535
 21
-242.4375
 31
0
 70
   32
 71
    5
 72
    0
  3
Standard
 53
0
210
0
220
0
230
1
100
AcDbAlignedDimension
 13
515
 23
-223
 33
0
 14
555
 24
-223
 34
0
100
AcDbRotatedDimension
  0
DIMENSION
  5
1C8
100
AcDbEntity
  8
0
  6
ByLayer
 62
  256
370
   -1
100
AcDbDimension
  2
*D15
 10
570
 20
-243
 30
0
 11
562.5
 21
-242.4375
 31
0
 70
   32
 71
    5
 72
    0
  3
Standard
 53
0
210
0
220
0
230
1
100
AcDbAlignedDimension
 13
555
 23
-223
 33
0
 14
570
 24
-223
 34
0
100
AcDbRotatedDimension
  0
DIMENSION
  5
1C9
100
AcDbEntity
  8
0
  6
ByLayer
 62
  256
370
   -1
100
AcDbDimension
  2
*D16
 10
490
 20
-243
 30
0
 11
492.5
 21
-242.4375
 31
0
 70
   32
 71
    5
 72
    0
  3
Standard
 53
0
210
0
220
0
230
1
100
AcDbAlignedDimension
 13
495
 23
-236
 33
0
 14
490
 24
-236
 34
0
100
AcDbRotatedDimension
  0
DIMENSION
  5
1CA
100
AcDbEntity
  8
0
  6
ByLayer
 62
  256
370
   -1
100
AcDbDimension
  2
*D17
 10
484
 20
-243
 30
0
 11
487
 21
-242.4375
 31
0
 70
   32
 71
    5
 72
    0
  3
Standard
 53
0
210
0
220
0
230
1
100
AcDbAlignedDimension
 13
490
 23
-236
 33
0
 14
484
 24
-233
 34
0
100
AcDbRotatedDimension
  0
DIMENSION
  5
1CB
100
AcDbEntity
  8
0
  6
ByLayer
 62
  256
370
   -1
100
AcDbDimension
  2
*D18
 10
473
 20
-243
 30
0
 11
478.5
 21
-242.4375
 31
0
 70
   32
 71
    5
 72
    0
  3
Standard
 53
0
210
0
220
0
230
1
100
AcDbAlignedDimension
 13
484
 23
-233
 33
0
 14
473
 24
-223
 34
0
100
AcDbRotatedDimension
  0
DIMENSION
  5
1CC
100
AcDbEntity
  8
0
  6
ByLayer
 62
  256
370
   -1
100
AcDbDimension
  2
*D19
 10
460
 20
-243
 30
0
 11
466.5
 21
-242.4375
 31
0
 70
   32
 71
    5
 72
    0
  3
Standard
 53
0
210
0
220
0
230
1
100
AcDbAlignedDimension
 13
473
 23
-223
 33
0
 14
460
 24
-223
 34
0
100
AcDbRotatedDimension
  0
DIMENSION
  5
1CD
100
AcDbEntity
  8
0
  6
ByLayer
 62
  256
370
   -1
100
AcDbDimension
  2
*D20
 10
496
 20
-188
 30
0
 11
478
 21
-187.4375
 31
0
 70
   32
 71
    5
 72
    0
  3
Standard
 53
0
210
0
220
0
230
1
100
AcDbAlignedDimension
 13
460
 23
-190
 33
0
 14
496
 24
-194
 34
0
100
AcDbRotatedDimension
  0
DIMENSION
  5
1CE
100
AcDbEntity
  8
0
  6
ByLayer
 62
  256
370
   -1
100
AcDbDimension
  2
*D21
 10
534
 20
-188
 30
0
 11
515
 21
-187.4375
 31
0
 70
   32
 71
    5
 72
    0
  3
Standard
 53
0
210
0
220
0
230
1
100
AcDbAlignedDimension
 13
496
 23
-194
 33
0
 14
534
 24
-194
 34
0
100
AcDbRotatedDimension
  0
DIMENSION
  5
1CF
100
AcDbEntity
  8
0
  6
ByLayer
 62
  256
370
   -1
100
AcDbDimension
  2
*D22
 10
570
 20
-188
 30
0
 11
552
 21
-187.4375
 31
0
 70
   32
 71
    5
 72
    0
  3
Standard
 53
0
210
0
220
0
230
1
100
AcDbAlignedDimension
 13
534
 23
-194
 33
0
 14
570
 24
-194
 34
0
100
AcDbRotatedDimension
  0
DIMENSION
  5
1D0
100
AcDbEntity
  8
0
  6
ByLayer
 62
  256
370
   -1
100
AcDbDimension
  2
*D23
 10
536
 20
-205
 30
0
 11
535.4375
 21
-199.5
 31
0
 70
   32
 71
    5
 72
    0
  3
Standard
 53
0
210
0
220
0
230
1
100
AcDbAlignedDimension
 13
534
 23
-194
 33
0
 14
534
 24
-205
 34
0
 50
90
100
AcDbRotatedDimension
  0
CIRCLE
  5
1D1
100
AcDbEntity
  8
0
  6
ByLayer
 62
    1
370
   -1
100
AcDbCircle
 10
555
 20
-223
 40
3
  0
CIRCLE
  5
1D2
100
AcDbEntity
  8
0
  6
ByLayer
 62
    1
370
   -1
100
AcDbCircle
 10
515
 20
-223
 40
3
  0
DIMENSION
  5
1D3
100
AcDbEntity
  8
0
  6
ByLayer
 62
    1
370
   -1
100
AcDbDimension
  2
*D24
 10
518
 20
-219
 30
0
 11
515
 21
-218.4375
 31
0
 70
   32
 71
    5
 72
    0
  3
Standard
 53
0
210
0
220
0
230
1
100
AcDbAlignedDimension
 13
512
 23
-223
 33
0
 14
518
 24
-223
 34
0
100
AcDbRotatedDimension
  0
DIMENSION
  5
1D4
100
AcDbEntity
  8
0
  6
ByLayer
 62
    1
370
   -1
100
AcDbDimension
  2
*D25
 10
558
 20
-219
 30
0
 11
555
 21
-218.4375
 31
0
 70
   32
 71
    5
 72
    0
  3
Standard
 53
0
210
0
220
0
230
1
100
AcDbAlignedDimension
 13
552
 23
-223
 33
0
 14
558
 24
-223
 34
0
100
AcDbRotatedDimension
  0
DIMENSION
  5
1D5
100
AcDbEntity
  8
0
  6
ByLayer
 62
  256
370
   -1
100
AcDbDimension
  2
*D26
 10
490.5047213610567
 20
-234.9934612492257
 30
0
 11
490.024108525689
 21
-234.4309612492257
 31
0
 70
   32
 71
    5
  3
Standard
 53
0
210
0
220
0
230
1
100
AcDbAlignedDimension
 13
489.5434956903214
 23
-235.9896405807151
 33
0
 14
490.5047213610567
 24
-235.9896405807151
 34
0
100
AcDbRotatedDimension
  0
DIMENSION
  5
1D6
100
AcDbEntity
  8
0
  6
ByLayer
 62
  256
370
   -1
100
AcDbDimension
  2
*D27
 10
495.5030948488805
 20
-234.9934612492257
 30
0
 11
495.0137435983243
 21
-234.4309612492257
 31
0
 70
   32
 71
    5
  3
Standard
 53
0
210
0
220
0
230
1
100
AcDbAlignedDimension
 13
494.5243923477681
 23
-236.0071174110921
 33
0
 14
495.5030948488805
 24
-236.0071174110921
 34
0
100
AcDbRotatedDimension
  0
LWPOLYLINE
  5
1D7
100
AcDbEntity
  8
0
  6
ByLayer
 62
  256
370
   -1
100
AcDbPolyline
 90
    4
 70
    1
 43
0
 10
460
 20
-250
 10
570
 20
-250
 10
570
 20
-300
 10
460
 20
-300
  0
LWPOLYLINE
  5
1D8
100
AcDbEntity
  8
0
  6
ByLayer
 62
  256
370
   -1
100
AcDbPolyline
 90
    4
 70
    1
 43
0
 10
466
 20
-290
 10
473
 20
-290
 10
473
 20
-288
 10
466
 20
-288
  0
DIMENSION
  5
1D9
100
AcDbEntity
  8
0
  6
ByLayer
 62
  256
370
   -1
100
AcDbDimension
  2
*D28
 10
458
 20
-300
 30
0
 11
457.4375
 21
-295
 31
0
 70
   32
 71
    5
 72
    0
  3
Standard
 53
0
210
0
220
0
230
1
100
AcDbAlignedDimension
 13
466
 23
-290
 33
0
 14
466
 24
-300
 34
0
 50
90
100
AcDbRotatedDimension
  0
DIMENSION
  5
1DA
100
AcDbEntity
  8
0
  6
ByLayer
 62
  256
370
   -1
100
AcDbDimension
  2
*D29
 10
570
 20
-302
 30
0
 11
566
 21
-301.4375
 31
0
 70
   32
 71
    5
 72
    0
  3
Standard
 53
0
210
0
220
0
230
1
100
AcDbAlignedDimension
 13
562
 23
-290
 33
0
 14
570
 24
-290
 34
0
100
AcDbRotatedDimension
  0
DIMENSION
  5
1DB
100
AcDbEntity
  8
0
  6
ByLayer
 62
  256
370
   -1
100
AcDbDimension
  2
*D30
 10
514
 20
-302
 30
0
 11
538
 21
-301.4375
 31
0
 70
   32
 71
    5
 72
    0
  3
Standard
 53
0
210
0
220
0
230
1
100
AcDbAlignedDimension
 13
562
 23
-290
 33
0
 14
514
 24
-290
 34
0
100
AcDbRotatedDimension
  0
DIMENSION
  5
1DC
100
AcDbEntity
  8
0
  6
ByLayer
 62
  256
370
   -1
100
AcDbDimension
  2
*D31
 10
572
 20
-290
 30
0
 11
571.4375
 21
-283
 31
0
 70
   32
 71
    5
 72
    0
  3
Standard
 53
0
210
0
220
0
230
1
100
AcDbAlignedDimension
 13
562
 23
-276
 33
0
 14
562
 24
-290
 34
0
 50
90
100
AcDbRotatedDimension
  0
DIMENSION
  5
1DD
100
AcDbEntity
  8
0
  6
ByLayer
 62
  256
370
   -1
100
AcDbDimension
  2
*D32
 10
572
 20
-300
 30
0
 11
571.4375
 21
-295
 31
0
 70
   32
 71
    5
 72
    0
  3
Standard
 53
0
210
0
220
0
230
1
100
AcDbAlignedDimension
 13
572
 23
-290
 33
0
 14
572
 24
-300
 34
0
 50
90
100
AcDbRotatedDimension
  0
DIMENSION
  5
1DE
100
AcDbEntity
  8
0
  6
ByLayer
 62
  256
370
   -1
100
AcDbDimension
  2
*D33
 10
458
 20
-290
 30
0
 11
457.4375
 21
-289
 31
0
 70
   32
 71
    5
 72
    0
  3
Standard
 53
0
210
0
220
0
230
1
100
AcDbAlignedDimension
 13
466
 23
-288
 33
0
 14
466
 24
-290
 34
0
 50
90
100
AcDbRotatedDimension
  0
LWPOLYLINE
  5
1DF
100
AcDbEntity
  8
0
  6
ByLayer
 62
  256
370
   -1
100
AcDbPolyline
 90
    4
 70
    1
 43
0
 10
506.7462892593109
 20
-276.5977441233044
 10
554.7025652980113
 20
-276.5977441233044
 10
554.7176753127309
 20
-290.0876007930835
 10
506.7176753127309
 20
-290.0876007930835
  0
CIRCLE
  5
1E0
100
AcDbEntity
  8
0
  6
ByLayer
 62
  256
370
   -1
100
AcDbCircle
 10
557.7176753127309
 20
-283.0876007930835
 40
1.430184103819305
  0
CIRCLE
  5
1E1
100
AcDbEntity
  8
0
  6
ByLayer
 62
  256
370
   -1
100
AcDbCircle
 10
503.5819154287531
 20
-283.2616707605561
 40
1.430184103819305
  0
CIRCLE
  5
1E2
100
AcDbEntity
  8
0
  6
ByLayer
 62
  256
370
   -1
100
AcDbCircle
 10
474
 20
-276
 40
4
  0
CIRCLE
  5
1E3
100
AcDbEntity
  8
0
  6
ByLayer
 62
  256
370
   -1
100
AcDbCircle
 10
488
 20
-275.8768943743823
 40
4.123105625617661
  0
DIMENSION
  5
1E4
100
AcDbEntity
  8
0
  6
ByLayer
 62
  256
370
   -1
100
AcDbDimension
  2
*D34
 10
477.794733192202
 20
-274.7350889359327
 30
0
 11
473.8221218816155
 21
-275.4663656448466
 31
0
 70
   35
 71
    5
  3
Standard
 53
0
210
0
220
0
230
1
100
AcDbDiametricDimension
 15
470.205266807798
 25
-277.2649110640673
 35
0
 40
0
  0
DIMENSION
  5
1E5
100
AcDbEntity
  8
0
  6
ByLayer
 62
  256
370
   -1
100
AcDbDimension
  2
*D35
 10
491.641893749501
 20
-273.9438630975155
 30
0
 11
487.7362837162158
 21
-275.3800443249036
 31
0
 70
   35
 71
    5
  3
Standard
 53
0
210
0
220
0
230
1
100
AcDbDiametricDimension
 15
484.358106250499
 25
-277.8099256512492
 35
0
 40
0
  0
DIMENSION
  5
1E6
100
AcDbEntity
  8
0
  6
ByLayer
 62
  256
370
   -1
100
AcDbDimension
  2
*D36
 10
460
 20
-268
 30
0
 11
467
 21
-267.4375
 31
0
 70
   32
 71
    5
  3
Standard
 53
0
210
0
220
0
230
1
100
AcDbAlignedDimension
 13
474
 23
-276
 33
0
 14
460
 24
-276
 34
0
100
AcDbRotatedDimension
  0
DIMENSION
  5
1E7
100
AcDbEntity
  8
0
  6
ByLayer
 62
  256
370
   -1
100
AcDbDimension
  2
*D37
 10
488
 20
-268
 30
0
 11
481
 21
-267.4375
 31
0
 70
   32
 71
    5
  3
Standard
 53
0
210
0
220
0
230
1
100
AcDbAlignedDimension
 13
474
 23
-276
 33
0
 14
488
 24
-276
 34
0
100
AcDbRotatedDimension
  0
DIMENSION
  5
1E8
100
AcDbEntity
  8
0
  6
ByLayer
 62
  256
370
   -1
100
AcDbDimension
  2
*D38
 10
480
 20
-300
 30
0
 11
479.4375
 21
-288
 31
0
 70
   32
 71
    5
  3
Standard
 53
0
210
0
220
0
230
1
100
AcDbAlignedDimension
 13
474
 23
-276
 33
0
 14
474
 24
-300
 34
0
 50
90
100
AcDbRotatedDimension
  0
DIMENSION
  5
1E9
100
AcDbEntity
  8
0
  6
ByLayer
 62
  256
370
   -1
100
AcDbDimension
  2
*D39
 10
494
 20
-300
 30
0
 11
493.4375
 21
-288
 31
0
 70
   32
 71
    5
  3
Standard
 53
0
210
0
220
0
230
1
100
AcDbAlignedDimension
 13
488
 23
-276
 33
0
 14
488
 24
-300
 34
0
 50
90
100
AcDbRotatedDimension
  0
DIMENSION
  5
1EA
100
AcDbEntity
  8
0
  6
ByLayer
 62
  256
370
   -1
100
AcDbDimension
  2
*D40
 10
460
 20
-302
 30
0
 11
463
 21
-301.4375
 31
0
 70
   32
 71
    5
  3
Standard
 53
0
210
0
220
0
230
1
100
AcDbAlignedDimension
 13
466
 23
-290
 33
0
 14
460
 24
-290
 34
0
100
AcDbRotatedDimension
  0
DIMENSION
  5
1EB
100
AcDbEntity
  8
0
  6
ByLayer
 62
  256
370
   -1
100
AcDbDimension
  2
*D41
 10
473
 20
-302
 30
0
 11
469.5
 21
-301.4375
 31
0
 70
   32
 71
    5
  3
Standard
 53
0
210
0
220
0
230
1
100
AcDbAlignedDimension
 13
466
 23
-290
 33
0
 14
473
 24
-290
 34
0
100
AcDbRotatedDimension
  0
ENDSEC
  0
SECTION
  2
OBJECTS
  0
DICTIONARY
  5
C
330
0
100
AcDbDictionary
281
    1
  3
ACAD_GROUP
350
D
  0
DICTIONARY
  5
D
330
C
100
AcDbDictionary
281
    1
  0
ENDSEC
  0
EOF
